<?xml version="1.0" encoding="UTF-8" standalone="no"?>
<svg width="89px" height="89px" viewBox="0 0 89 89" version="1.1" xmlns="http://www.w3.org/2000/svg" xmlns:xlink="http://www.w3.org/1999/xlink" xmlns:sketch="http://www.bohemiancoding.com/sketch/ns">
    <!-- Generator: Sketch 3.3.3 (12081) - http://www.bohemiancoding.com/sketch -->
    <title>clock</title>
    <desc>Created with Sketch.</desc>
    <defs></defs>
    <g id="news_page_index" stroke="none" stroke-width="1" fill="none" fill-rule="evenodd" sketch:type="MSPage">
        <g id="PTSNews-Index_4_36px_dot" sketch:type="MSArtboardGroup" transform="translate(-1152.000000, -11.000000)">
            <g id="family_header" sketch:type="MSLayerGroup">
                <g id="clock" transform="translate(1152.000000, 11.000000)" sketch:type="MSShapeGroup">
                    <circle id="Oval-26" fill="#FFFFFF" cx="44.5" cy="44.5" r="44.5"></circle>
                    <path d="M43.7109929,0.315602837 L45.2890071,0.315602837 L45.2890071,3.47163121 L43.7109929,3.47163121 L43.7109929,0.315602837 Z M48.3338423,0.475175889 L49.903212,0.640123286 L49.5733172,3.7788626 L48.0039475,3.6139152 L48.3338423,0.475175889 Z M52.9146873,1.11709413 L54.4582181,1.44518172 L53.8020429,4.5322433 L52.2585121,4.2041557 L52.9146873,1.11709413 Z M57.4033393,2.23432456 L58.9041199,2.72195776 L57.9288535,5.72351911 L56.4280729,5.23588591 L57.4033393,2.23432456 Z M61.7506195,3.81462658 L63.1922072,4.45646277 L61.9085348,7.33963815 L60.4669471,6.69780196 L61.7506195,3.81462658 Z M65.9088984,5.84068606 L67.2754988,6.62969315 L65.6974846,9.36289389 L64.3308842,8.5738868 L65.9088984,5.84068606 Z M69.8326169,8.29030508 L71.1092572,9.21783854 L69.2541902,11.7711191 L67.97755,10.8435857 L69.8326169,8.29030508 Z M73.4787859,11.1366451 L74.651479,12.1925427 L72.5396838,14.5379288 L71.3669908,13.4820312 L73.4787859,11.1366451 Z M76.8074573,14.348521 L77.8633549,15.5212141 L75.5179688,17.6330092 L74.4620712,16.4603162 L76.8074573,14.348521 Z M79.7821615,17.8907428 L80.7096949,19.1673831 L78.1564143,21.02245 L77.2288809,19.7458098 L79.7821615,17.8907428 Z M82.3703068,21.7245012 L83.1593139,23.0911016 L80.4261132,24.6691158 L79.6371061,23.3025154 L82.3703068,21.7245012 Z M84.5435372,25.8077928 L85.1853734,27.2493805 L82.302198,28.5330529 L81.6603619,27.0914652 L84.5435372,25.8077928 Z M86.2780422,30.0958801 L86.7656754,31.5966607 L83.7641141,32.5719271 L83.2764809,31.0711465 L86.2780422,30.0958801 Z M87.5548183,34.5417819 L87.8829059,36.0853127 L84.7958443,36.7414879 L84.4677567,35.1979571 L87.5548183,34.5417819 Z M88.3598767,39.096788 L88.5248241,40.6661577 L85.3860848,40.9960525 L85.2211374,39.4266828 L88.3598767,39.096788 Z M88.6843972,43.7109929 L88.6843972,45.2890071 L85.5283688,45.2890071 L85.5283688,43.7109929 L88.6843972,43.7109929 Z M88.5248241,48.3338423 L88.3598767,49.903212 L85.2211374,49.5733172 L85.3860848,48.0039475 L88.5248241,48.3338423 Z M87.8829059,52.9146873 L87.5548183,54.4582181 L84.4677567,53.8020429 L84.7958443,52.2585121 L87.8829059,52.9146873 Z M86.7656754,57.4033393 L86.2780422,58.9041199 L83.2764809,57.9288535 L83.7641141,56.4280729 L86.7656754,57.4033393 Z M85.1853734,61.7506195 L84.5435372,63.1922072 L81.6603619,61.9085348 L82.302198,60.4669471 L85.1853734,61.7506195 Z M83.1593139,65.9088984 L82.3703068,67.2754988 L79.6371061,65.6974846 L80.4261132,64.3308842 L83.1593139,65.9088984 Z M80.7096949,69.8326169 L79.7821615,71.1092572 L77.2288809,69.2541902 L78.1564143,67.97755 L80.7096949,69.8326169 Z M77.8633549,73.4787859 L76.8074573,74.651479 L74.4620712,72.5396838 L75.5179688,71.3669908 L77.8633549,73.4787859 Z M74.651479,76.8074573 L73.4787859,77.8633549 L71.3669908,75.5179688 L72.5396838,74.4620712 L74.651479,76.8074573 Z M71.1092572,79.7821615 L69.8326169,80.7096949 L67.97755,78.1564143 L69.2541902,77.2288809 L71.1092572,79.7821615 Z M67.2754988,82.3703068 L65.9088984,83.1593139 L64.3308842,80.4261132 L65.6974846,79.6371061 L67.2754988,82.3703068 Z M63.1922072,84.5435372 L61.7506195,85.1853734 L60.4669471,82.302198 L61.9085348,81.6603619 L63.1922072,84.5435372 Z M58.9041199,86.2780422 L57.4033393,86.7656754 L56.4280729,83.7641141 L57.9288535,83.2764809 L58.9041199,86.2780422 Z M54.4582181,87.5548183 L52.9146873,87.8829059 L52.2585121,84.7958443 L53.8020429,84.4677567 L54.4582181,87.5548183 Z M49.903212,88.3598767 L48.3338423,88.5248241 L48.0039475,85.3860848 L49.5733172,85.2211374 L49.903212,88.3598767 Z M45.2890071,88.6843972 L43.7109929,88.6843972 L43.7109929,85.5283688 L45.2890071,85.5283688 L45.2890071,88.6843972 Z M40.6661577,88.5248241 L39.096788,88.3598767 L39.4266828,85.2211374 L40.9960525,85.3860848 L40.6661577,88.5248241 Z M36.0853127,87.8829059 L34.5417819,87.5548183 L35.1979571,84.4677567 L36.7414879,84.7958443 L36.0853127,87.8829059 Z M31.5966607,86.7656754 L30.0958801,86.2780422 L31.0711465,83.2764809 L32.5719271,83.7641141 L31.5966607,86.7656754 Z M27.2493805,85.1853734 L25.8077928,84.5435372 L27.0914652,81.6603619 L28.5330529,82.302198 L27.2493805,85.1853734 Z M23.0911016,83.1593139 L21.7245012,82.3703068 L23.3025154,79.6371061 L24.6691158,80.4261132 L23.0911016,83.1593139 Z M19.1673831,80.7096949 L17.8907428,79.7821615 L19.7458098,77.2288809 L21.02245,78.1564143 L19.1673831,80.7096949 Z M15.5212141,77.8633549 L14.348521,76.8074573 L16.4603162,74.4620712 L17.6330092,75.5179688 L15.5212141,77.8633549 Z M12.1925427,74.651479 L11.1366451,73.4787859 L13.4820312,71.3669908 L14.5379288,72.5396838 L12.1925427,74.651479 Z M9.21783854,71.1092572 L8.29030508,69.8326169 L10.8435857,67.97755 L11.7711191,69.2541902 L9.21783854,71.1092572 Z M6.62969315,67.2754988 L5.84068606,65.9088984 L8.5738868,64.3308842 L9.36289389,65.6974846 L6.62969315,67.2754988 Z M4.45646277,63.1922072 L3.81462658,61.7506195 L6.69780196,60.4669471 L7.33963815,61.9085348 L4.45646277,63.1922072 Z M2.72195776,58.9041199 L2.23432456,57.4033393 L5.23588591,56.4280729 L5.72351911,57.9288535 L2.72195776,58.9041199 Z M1.44518172,54.4582181 L1.11709413,52.9146873 L4.2041557,52.2585121 L4.5322433,53.8020429 L1.44518172,54.4582181 Z M0.640123286,49.903212 L0.475175889,48.3338423 L3.6139152,48.0039475 L3.7788626,49.5733172 L0.640123286,49.903212 Z M0.315602837,45.2890071 L0.315602837,43.7109929 L3.47163121,43.7109929 L3.47163121,45.2890071 L0.315602837,45.2890071 Z M0.475175889,40.6661577 L0.640123286,39.096788 L3.7788626,39.4266828 L3.6139152,40.9960525 L0.475175889,40.6661577 Z M1.11709413,36.0853127 L1.44518172,34.5417819 L4.5322433,35.1979571 L4.2041557,36.7414879 L1.11709413,36.0853127 Z M2.23432456,31.5966607 L2.72195776,30.0958801 L5.72351911,31.0711465 L5.23588591,32.5719271 L2.23432456,31.5966607 Z M3.81462658,27.2493805 L4.45646277,25.8077928 L7.33963815,27.0914652 L6.69780196,28.5330529 L3.81462658,27.2493805 Z M5.84068606,23.0911016 L6.62969315,21.7245012 L9.36289389,23.3025154 L8.5738868,24.6691158 L5.84068606,23.0911016 Z M8.29030508,19.1673831 L9.21783854,17.8907428 L11.7711191,19.7458098 L10.8435857,21.02245 L8.29030508,19.1673831 Z M11.1366451,15.5212141 L12.1925427,14.348521 L14.5379288,16.4603162 L13.4820312,17.6330092 L11.1366451,15.5212141 Z M14.348521,12.1925427 L15.5212141,11.1366451 L17.6330092,13.4820312 L16.4603162,14.5379288 L14.348521,12.1925427 Z M17.8907428,9.21783854 L19.1673831,8.29030508 L21.02245,10.8435857 L19.7458098,11.7711191 L17.8907428,9.21783854 Z M21.7245012,6.62969315 L23.0911016,5.84068606 L24.6691158,8.5738868 L23.3025154,9.36289389 L21.7245012,6.62969315 Z M25.8077928,4.45646277 L27.2493805,3.81462658 L28.5330529,6.69780196 L27.0914652,7.33963815 L25.8077928,4.45646277 Z M30.0958801,2.72195776 L31.5966607,2.23432456 L32.5719271,5.23588591 L31.0711465,5.72351911 L30.0958801,2.72195776 Z M34.5417819,1.44518172 L36.0853127,1.11709413 L36.7414879,4.2041557 L35.1979571,4.5322433 L34.5417819,1.44518172 Z M39.096788,0.640123286 L40.6661577,0.475175889 L40.9960525,3.6139152 L39.4266828,3.7788626 L39.096788,0.640123286 Z" id="mins" fill="#000000"></path>
                    <path d="M43.5118346,0.197251773 L45.4881654,0.197251773 L45.4881654,8.43196334 L43.5118346,8.43196334 L43.5118346,0.197251773 Z M65.7955978,5.63861188 L67.5071504,6.62677727 L63.3897947,13.7582467 L61.678242,12.7700813 L65.7955978,5.63861188 Z M82.3732227,21.4928496 L83.3613881,23.2044022 L76.2299187,27.321758 L75.2417533,25.6102053 L82.3732227,21.4928496 Z M88.8027482,43.5118346 L88.8027482,45.4881654 L80.5680367,45.4881654 L80.5680367,43.5118346 L88.8027482,43.5118346 Z M83.3613881,65.7955978 L82.3732227,67.5071504 L75.2417533,63.3897947 L76.2299187,61.678242 L83.3613881,65.7955978 Z M67.5071504,82.3732227 L65.7955978,83.3613881 L61.678242,76.2299187 L63.3897947,75.2417533 L67.5071504,82.3732227 Z M45.4881654,88.8027482 L43.5118346,88.8027482 L43.5118346,80.5680367 L45.4881654,80.5680367 L45.4881654,88.8027482 Z M23.2044022,83.3613881 L21.4928496,82.3732227 L25.6102053,75.2417533 L27.321758,76.2299187 L23.2044022,83.3613881 Z M6.62677727,67.5071504 L5.63861188,65.7955978 L12.7700813,61.678242 L13.7582467,63.3897947 L6.62677727,67.5071504 Z M0.197251773,45.4881654 L0.197251773,43.5118346 L8.43196334,43.5118346 L8.43196334,45.4881654 L0.197251773,45.4881654 Z M5.63861188,23.2044022 L6.62677727,21.4928496 L13.7582467,25.6102053 L12.7700813,27.321758 L5.63861188,23.2044022 Z M21.4928496,6.62677727 L23.2044022,5.63861188 L27.321758,12.7700813 L25.6102053,13.7582467 L21.4928496,6.62677727 Z" id="hours" fill="#000000"></path>
                    <circle id="center" stroke="#FFFFFF" stroke-width="2" cx="44.5" cy="44.5" r="1.26241135"></circle>
                </g>
            </g>
        </g>
    </g>
</svg>