<?xml version="1.0" encoding="UTF-8" standalone="no"?>
<svg width="6px" height="10px" viewBox="0 0 6 10" version="1.1" xmlns="http://www.w3.org/2000/svg" xmlns:xlink="http://www.w3.org/1999/xlink" xmlns:sketch="http://www.bohemiancoding.com/sketch/ns">
    <!-- Generator: Sketch 3.3.3 (12081) - http://www.bohemiancoding.com/sketch -->
    <title>ic_aarow_right</title>
    <desc>Created with Sketch.</desc>
    <defs></defs>
    <g id="news_list" stroke="none" stroke-width="1" fill="none" fill-rule="evenodd" sketch:type="MSPage">
        <g id="PTSnews-list_mobile_ver1" sketch:type="MSArtboardGroup" transform="translate(-125.000000, -164.000000)">
            <g id="news" sketch:type="MSLayerGroup" transform="translate(21.400000, 158.500000)">
                <g id="ic_aarow_right" transform="translate(101.000000, 0.500000)" sketch:type="MSShapeGroup">
                    <path d="M8.40939751,10 C8.46916312,9.84776798 8.43988829,9.66382907 8.31576223,9.53970301 L3.98008155,5.20402233 C3.8106769,5.03461768 3.54425613,5.03684263 3.37856048,5.20253828 C3.21771071,5.36338805 3.21352926,5.63754408 3.38004453,5.80405935 L7.57598518,10 L3.38004453,14.1959406 C3.21352926,14.3624559 3.21771071,14.636612 3.37856048,14.7974617 C3.54425613,14.9631574 3.8106769,14.9653823 3.98008155,14.7959777 L8.31576223,10.460297 C8.43988829,10.3361709 8.46916312,10.152232 8.40939751,10 L8.40939751,10 Z" id="Rectangle-1158" fill="#B2B2B2"></path>
                    <rect id="Rectangle-496" x="0" y="0" width="11" height="16"></rect>
                </g>
            </g>
        </g>
    </g>
</svg>