<?xml version="1.0" encoding="utf-8"?>
<!-- Generator: Adobe Illustrator 19.1.0, SVG Export Plug-In . SVG Version: 6.00 Build 0)  -->
<svg version="1.2" baseProfile="tiny" id="Layer_1" xmlns="http://www.w3.org/2000/svg" xmlns:xlink="http://www.w3.org/1999/xlink"
	 x="0px" y="0px" viewBox="0 0 44 44" xml:space="preserve">
<rect x="0" y="0" fill="#00C300" width="44" height="44"/>
<path fill="none" d="M71.5,53.1c9-9.9,13.3-19.9,13.3-31c0-27.8-27.8-50.3-62-50.3c-34.2,0-62,22.6-62,50.3
	c0,24.9,22.1,45.7,51.9,49.7"/>
<path fill="none" d="M-17.1,35.4V10.7c0-1.8,1.5-3.3,3.3-3.3c1.8,0,3.3,1.5,3.3,3.3v21.4"/>
<path fill="none" d="M4.7,35.4V10.7c0-1.8,1.5-3.3,3.3-3.3c1.8,0,3.3,1.5,3.3,3.3v24.7"/>
<path fill="none" d="M34.4,26V10.7c0-1.8,1.5-3.3,3.3-3.3c1.8,0,3.3,1.5,3.3,3.3v24.7"/>
<path fill="none" d="M15.9,35.4V10.7c0-1.4,0.9-2.6,2.2-3.1c0.3-0.1,0.7-0.2,1-0.2c1,0,2,0.5,2.6,1.3L34.4,26"/>
<path fill="none" d="M35,37.3L22.4,20.1v15.3"/>
<g>
	<path fill="#00C300" d="M36,0L8,0C3.6,0,0,3.6,0,8l0,28c0,4.4,3.6,8,8,8l28,0c4.4,0,8-3.6,8-8l0-28C44,3.6,40.4,0,36,0z"/>
	<g>
		<path fill="#FFFFFF" d="M38,20.1c0-7.2-7.2-13-16-13c-8.8,0-16,5.8-16,13c0,6.4,5.7,11.8,13.4,12.8c0.5,0.1,1.2,0.3,1.4,0.8
			c0.2,0.4,0.1,1,0.1,1.4c0,0-0.2,1.1-0.2,1.4c-0.1,0.4-0.3,1.6,1.4,0.9c1.7-0.7,9.2-5.4,12.6-9.3h0C36.9,25.5,38,22.9,38,20.1z
			 M15.7,24.3h-3.2c-0.5,0-0.8-0.4-0.8-0.8v-6.4c0-0.5,0.4-0.8,0.8-0.8c0.5,0,0.8,0.4,0.8,0.8v5.5h2.3c0.5,0,0.8,0.4,0.8,0.8
			C16.6,24,16.2,24.3,15.7,24.3z M19,23.5c0,0.5-0.4,0.8-0.8,0.8c-0.5,0-0.8-0.4-0.8-0.8v-6.4c0-0.5,0.4-0.8,0.8-0.8
			c0.5,0,0.8,0.4,0.8,0.8V23.5z M26.7,23.5c0,0.4-0.2,0.7-0.6,0.8c-0.1,0-0.2,0-0.3,0c-0.3,0-0.5-0.1-0.7-0.3l-3.3-4.4v3.9
			c0,0.5-0.4,0.8-0.8,0.8c-0.5,0-0.8-0.4-0.8-0.8v-6.4c0-0.4,0.2-0.7,0.6-0.8c0.1,0,0.2,0,0.3,0c0.3,0,0.5,0.1,0.7,0.3l3.3,4.4v-3.9
			c0-0.5,0.4-0.8,0.8-0.8c0.5,0,0.8,0.4,0.8,0.8V23.5z M31.8,19.5c0.5,0,0.8,0.4,0.8,0.8c0,0.5-0.4,0.8-0.8,0.8h-2.3v1.5h2.3
			c0.5,0,0.8,0.4,0.8,0.8c0,0.5-0.4,0.8-0.8,0.8h-3.2c-0.5,0-0.8-0.4-0.8-0.8v-3.2c0,0,0,0,0,0v-3.2c0-0.5,0.4-0.8,0.8-0.8h3.2
			c0.5,0,0.8,0.4,0.8,0.8S32.3,18,31.8,18h-2.3v1.5H31.8z"/>
	</g>
</g>
</svg>
