<?xml version="1.0" encoding="UTF-8" standalone="no"?>
<svg width="11px" height="20px" viewBox="0 0 11 20" version="1.1" xmlns="http://www.w3.org/2000/svg" xmlns:xlink="http://www.w3.org/1999/xlink" xmlns:sketch="http://www.bohemiancoding.com/sketch/ns">
    <!-- Generator: Sketch 3.3.3 (12081) - http://www.bohemiancoding.com/sketch -->
    <title>ic_more</title>
    <desc>Created with Sketch.</desc>
    <defs></defs>
    <g id="news_page_index" stroke="none" stroke-width="1" fill="none" fill-rule="evenodd" sketch:type="MSPage">
        <g id="PTSNews-Index_4_36px_dot" sketch:type="MSArtboardGroup" transform="translate(-131.000000, -1341.000000)">
            <g id="Group_category_ver2" sketch:type="MSLayerGroup" transform="translate(75.000000, 1266.000000)">
                <g id="Group_1" transform="translate(0.900000, 67.000000)" sketch:type="MSShapeGroup">
                    <g id="title_more">
                        <g id="ic_more" transform="translate(50.000000, 0.000000)">
                            <rect id="Rectangle-4194" x="0" y="0" width="20" height="28"></rect>
                            <path d="M10.482214,13.0626387 C10.174266,12.9320619 9.80819537,12.9923159 9.5593298,13.2411815 L1.24176674,21.5587445 C0.921335482,21.8791758 0.915708903,22.4220938 1.2471002,22.7534851 C1.58080189,23.0871868 2.11339507,23.0872643 2.44184078,22.7588185 L10.482214,14.7184453 L18.5225872,22.7588185 C18.851033,23.0872643 19.3836261,23.0871868 19.7173278,22.7534851 C20.0487191,22.4220938 20.0430925,21.8791758 19.7226613,21.5587445 L11.4050982,13.2411815 C11.1562327,12.9923159 10.790162,12.9320619 10.482214,13.0626387 Z" id="Rectangle-1158" fill="#B2B2B2" transform="translate(10.482214, 18.000000) rotate(-270.000000) translate(-10.482214, -18.000000) "></path>
                        </g>
                    </g>
                </g>
            </g>
        </g>
    </g>
</svg>