<?xml version="1.0" encoding="UTF-8" standalone="no"?>
<svg width="45px" height="44px" viewBox="0 0 45 44" version="1.1" xmlns="http://www.w3.org/2000/svg" xmlns:xlink="http://www.w3.org/1999/xlink" xmlns:sketch="http://www.bohemiancoding.com/sketch/ns">
    <!-- Generator: Sketch 3.3.3 (12081) - http://www.bohemiancoding.com/sketch -->
    <title>ic_pinterest</title>
    <desc>Created with Sketch.</desc>
    <defs>
        <rect id="path-1" x="0" y="0" width="44" height="44"></rect>
    </defs>
    <g id="news_article" stroke="none" stroke-width="1" fill="none" fill-rule="evenodd" sketch:type="MSPage">
        <g id="PTSnews-article_pad_ver1" sketch:type="MSArtboardGroup" transform="translate(-256.000000, -769.000000)">
            <g id="social_share_up" sketch:type="MSLayerGroup" transform="translate(48.000000, 769.000000)">
                <g id="ic_pinterest" transform="translate(208.312500, 0.000000)">
                    <mask id="mask-2" sketch:name="Mask" fill="white">
                        <use xlink:href="#path-1"></use>
                    </mask>
                    <use id="Mask" fill="#CB2027" sketch:type="MSShapeGroup" xlink:href="#path-1"></use>
                    <path d="M13.0912014,18.7553598 C13.0912014,21.0258783 13.952062,23.0458276 15.7984413,23.7985618 C16.1012035,23.9221603 16.3723973,23.8028137 16.4602013,23.468086 C16.5212823,23.2364303 16.6657624,22.652013 16.7302205,22.4086279 C16.8187586,22.0775656 16.7844005,21.9614446 16.5400765,21.6729013 C16.0076732,21.0458183 15.6674695,20.2339973 15.6674695,19.0840762 C15.6674695,15.7479418 18.1670927,12.7613434 22.1764155,12.7613434 C25.7266028,12.7613434 27.6770842,14.9274703 27.6770842,17.8203801 C27.6770842,21.6267168 25.9901615,24.8392528 23.4858398,24.8392528 C22.102854,24.8392528 21.0675601,23.6971025 21.3993945,22.2963189 C21.7967147,20.6239998 22.5663943,18.8191384 22.5663943,17.6120366 C22.5663943,16.5314657 21.9855373,15.6302079 20.7834453,15.6302079 C19.3696253,15.6302079 18.2339001,17.0906648 18.2339001,19.0471286 C18.2339001,20.2932307 18.655594,21.1359881 18.655594,21.1359881 C18.655594,21.1359881 17.2087374,27.2574151 16.9551631,28.3294822 C16.4500701,30.4645262 16.8792523,33.0817951 16.9155192,33.3461464 C16.9368094,33.5027339 17.1384061,33.5399748 17.229734,33.4216545 C17.3601185,33.2517248 19.0439577,31.1759143 19.6164454,29.1017166 C19.7783982,28.5143669 20.5463158,25.4730802 20.5463158,25.4730802 C21.0055981,26.3479468 22.348059,27.1185683 23.775681,27.1185683 C28.0255103,27.1185683 30.9087986,23.2497725 30.9087986,18.0712426 C30.9087986,14.1555291 27.5873714,10.5087122 22.5392309,10.5087122 C16.2581641,10.5087122 13.0912014,15.0054708 13.0912014,18.7553598 Z" id="Path-Copy-2" fill="#FFFFFF" sketch:type="MSShapeGroup" mask="url(#mask-2)"></path>
                </g>
            </g>
        </g>
    </g>
</svg>