<?xml version="1.0" encoding="UTF-8" standalone="no"?>
<svg width="45px" height="44px" viewBox="0 0 45 44" version="1.1" xmlns="http://www.w3.org/2000/svg" xmlns:xlink="http://www.w3.org/1999/xlink" xmlns:sketch="http://www.bohemiancoding.com/sketch/ns">
    <!-- Generator: Sketch 3.3.3 (12081) - http://www.bohemiancoding.com/sketch -->
    <title>ic_twitter</title>
    <desc>Created with Sketch.</desc>
    <defs>
        <rect id="path-1" x="0" y="0" width="44" height="44"></rect>
    </defs>
    <g id="news_article" stroke="none" stroke-width="1" fill="none" fill-rule="evenodd" sketch:type="MSPage">
        <g id="PTSnews-article_pad_ver1" sketch:type="MSArtboardGroup" transform="translate(-99.000000, -769.000000)">
            <g id="social_share_up" sketch:type="MSLayerGroup" transform="translate(48.000000, 769.000000)">
                <g id="ic_twitter" transform="translate(51.562500, 0.000000)">
                    <mask id="mask-2" sketch:name="Mask" fill="white">
                        <use xlink:href="#path-1"></use>
                    </mask>
                    <use id="Mask" fill="#4099FF" sketch:type="MSShapeGroup" xlink:href="#path-1"></use>
                    <path d="M21.7116278,18.1392584 L21.7549081,18.8529299 L21.03357,18.7655415 C18.4078995,18.4305529 16.1140445,17.2945043 14.1664317,15.3865253 L13.2142655,14.4398182 L12.9690105,15.138925 C12.4496471,16.6973506 12.7814626,18.3431645 13.8634697,19.4500836 C14.4405402,20.0618021 14.3106993,20.1491904 13.3152528,19.7850723 C12.9690105,19.6685545 12.6660485,19.5811661 12.637195,19.6248603 C12.5362077,19.7268134 12.88245,21.0522034 13.1565584,21.5765335 C13.5316542,22.3047697 14.2962726,23.0184413 15.1330247,23.4408183 L15.839936,23.775807 L15.0031839,23.7903717 C14.1952852,23.7903717 14.1664317,23.8049364 14.2529923,24.1107956 C14.5415275,25.0575028 15.6812416,26.0624688 16.9507966,26.4994106 L17.8452558,26.8052698 L17.0662107,27.271341 C15.9120698,27.9413184 14.5559543,28.3200012 13.1998387,28.3491307 C12.5506345,28.3636954 12.0168443,28.4219543 12.0168443,28.4656485 C12.0168443,28.6112957 13.7769092,29.4269203 14.8012092,29.7473443 C17.8741093,30.6940514 21.5240799,30.2862391 24.2651645,28.6695546 C26.2127773,27.5189413 28.16039,25.2322795 29.069276,23.0184413 C29.5597859,21.8386985 30.0502958,19.6831192 30.0502958,18.6490237 C30.0502958,17.9790464 30.093576,17.891658 30.9014747,17.0905981 C31.3775578,16.6245269 31.8247874,16.1147616 31.9113479,15.9691143 C32.0556156,15.6923845 32.0411888,15.6923845 31.305424,15.9399849 C30.0791493,16.3769266 29.9060281,16.3186677 30.5119521,15.6632551 C30.9591817,15.1971839 31.4929719,14.3524298 31.4929719,14.1048295 C31.4929719,14.0611353 31.2765705,14.1339589 31.0313155,14.2650415 C30.7716338,14.4106887 30.1945634,14.6291596 29.7617605,14.7602421 L28.9827154,15.0078425 L28.2758041,14.5272065 C27.8862816,14.2650415 27.3380647,13.973747 27.0495294,13.8863586 C26.3137646,13.6824525 25.1884772,13.7115819 24.5248462,13.9446175 C22.7215011,14.6000301 21.5817869,16.2895383 21.7116278,18.1392584 Z" id="Path-Copy" fill="#FFFFFF" sketch:type="MSShapeGroup" mask="url(#mask-2)"></path>
                </g>
            </g>
        </g>
    </g>
</svg>