<?xml version="1.0" encoding="UTF-8" standalone="no"?>
<svg width="30px" height="30px" viewBox="0 0 30 30" version="1.1" xmlns="http://www.w3.org/2000/svg" xmlns:xlink="http://www.w3.org/1999/xlink" xmlns:sketch="http://www.bohemiancoding.com/sketch/ns">
    <!-- Generator: Sketch 3.3.3 (12081) - http://www.bohemiancoding.com/sketch -->
    <title>ic_X</title>
    <desc>Created with Sketch.</desc>
    <defs></defs>
    <g id="header" stroke="none" stroke-width="1" fill="none" fill-rule="evenodd" sketch:type="MSPage">
        <g id="PTS_header_ver7_2_no_second_wh_search" sketch:type="MSArtboardGroup" transform="translate(-1211.000000, -33.000000)" fill="#393333">
            <g id="search" sketch:type="MSLayerGroup">
                <g id="ic_X" transform="translate(1197.000000, 19.000000)" sketch:type="MSShapeGroup">
                    <path d="M30.3333333,27.5666667 L30.3333333,10.2308716 C30.3333333,9.49648693 29.7363797,8.9 29,8.9 C28.2584864,8.9 27.6666667,9.4958515 27.6666667,10.2308716 L27.6666667,27.5666667 L10.3308716,27.5666667 C9.59648693,27.5666667 9,28.1636203 9,28.9 C9,29.6415136 9.5958515,30.2333333 10.3308716,30.2333333 L27.6666667,30.2333333 L27.6666667,47.5691284 C27.6666667,48.3035131 28.2636203,48.9 29,48.9 C29.7415136,48.9 30.3333333,48.3041485 30.3333333,47.5691284 L30.3333333,30.2333333 L47.6691284,30.2333333 C48.4035131,30.2333333 49,29.6363797 49,28.9 C49,28.1584864 48.4041485,27.5666667 47.6691284,27.5666667 L30.3333333,27.5666667 Z" id="X" transform="translate(29.000000, 28.900000) rotate(-315.000000) translate(-29.000000, -28.900000) "></path>
                </g>
            </g>
        </g>
    </g>
</svg>