<?xml version="1.0" encoding="UTF-8" standalone="no"?>
<svg width="148px" height="31px" viewBox="0 0 148 31" version="1.1" xmlns="http://www.w3.org/2000/svg" xmlns:xlink="http://www.w3.org/1999/xlink" xmlns:sketch="http://www.bohemiancoding.com/sketch/ns">
    <!-- Generator: Sketch 3.3.3 (12081) - http://www.bohemiancoding.com/sketch -->
    <title>latest-title</title>
    <desc>Created with Sketch.</desc>
    <defs></defs>
    <g id="news_page_index" stroke="none" stroke-width="1" fill="none" fill-rule="evenodd" sketch:type="MSPage">
        <g id="PTSnews-Index_pad-ver2_menu" sketch:type="MSArtboardGroup" transform="translate(-21.000000, -747.000000)" fill="#000000">
            <g id="Group_latest" sketch:type="MSLayerGroup" transform="translate(19.700000, 747.000000)">
                <g id="latest-title" transform="translate(1.000000, 0.000000)" sketch:type="MSShapeGroup">
                    <path d="M141.537449,9.24195537 C141.14935,9.16024232 140.729794,9.27165694 140.427943,9.57350729 L129.356952,20.6444982 C128.880723,21.1207276 128.88184,21.8873399 129.355361,22.3608607 C129.832183,22.8376829 130.597323,22.833669 131.071723,22.359269 L141.537449,11.893543 L152.003175,22.359269 C152.477575,22.833669 153.242715,22.8376829 153.719538,22.3608607 C154.193058,21.8873399 154.194175,21.1207276 153.717946,20.6444982 L142.646955,9.57350729 C142.345105,9.27165694 141.925548,9.16024232 141.537449,9.24195537 Z" id="Rectangle-876" transform="translate(141.537449, 15.966388) rotate(-270.000000) translate(-141.537449, -15.966388) "></path>
                    <path d="M24.696,10.2 L24.696,1.976 L5.272,1.976 L5.272,10.2 L24.696,10.2 Z M29.752,29.048 C27.32,28.12 25.112,26.776 23.192,25.336 C25.496,23.064 26.904,20.344 27.768,16.504 L14.872,16.504 L14.872,17.592 L17.112,17.592 C17.976,21.08 19.384,23.448 21.432,25.368 C19.64,26.744 17.368,27.96 14.328,28.888 L14.936,30.008 C18.008,28.952 20.376,27.576 22.296,26.04 C24.344,27.608 26.488,29.176 29.048,30.232 L29.752,29.048 Z M28.92,13.496 L28.92,12.408 L0.984,12.408 L0.984,13.496 L4.024,13.496 L4.024,27 C3,27.224 2.008,27.288 0.76,27.512 L1.144,28.728 C5.176,27.96 8.44,27.288 12.312,26.328 L12.312,30.136 L13.528,30.136 L13.528,13.496 L28.92,13.496 Z M23.48,5.496 L6.488,5.496 L6.488,3.064 L23.48,3.064 L23.48,5.496 Z M23.48,9.112 L6.488,9.112 L6.488,6.584 L23.48,6.584 L23.48,9.112 Z M26.232,17.592 C25.592,20.44 24.472,22.776 22.328,24.696 C20.408,22.904 19.096,20.632 18.36,17.592 L26.232,17.592 Z M12.312,16.92 L5.24,16.92 L5.24,13.496 L12.312,13.496 L12.312,16.92 Z M12.312,21.272 L5.24,21.272 L5.24,18.04 L12.312,18.04 L12.312,21.272 Z M12.312,25.144 C10.008,25.752 7.8,26.264 5.24,26.776 L5.24,22.392 L12.312,22.392 L12.312,25.144 Z M61.464,12.728 L61.464,11.608 L50.68,11.608 L50.68,4.12 C54.84,3.608 57.08,3.384 60.44,2.712 L59.704,1.592 C56.248,2.264 54.104,2.584 49.56,3.096 L49.56,16.216 C49.56,20.984 48.792,25.336 46.392,29.08 L47.48,29.752 C49.784,26.072 50.68,21.432 50.68,16.216 L50.68,12.728 L56.344,12.728 L56.344,30.136 L57.56,30.136 L57.56,12.728 L61.464,12.728 Z M41.56,3.864 C40.792,2.744 40.056,1.72 39.256,0.6 L38.392,1.176 C39.256,2.424 39.864,3.416 40.6,4.568 L41.56,3.864 Z M47.032,5.976 L47.032,4.856 L33.624,4.856 L33.624,5.976 L47.032,5.976 Z M48.056,13.336 L48.056,12.152 L43.224,12.152 C43.896,10.52 44.504,8.856 45.144,6.968 L43.992,6.552 C43.352,8.568 42.808,10.136 42.04,12.152 L39,12.152 C38.232,10.072 37.752,8.792 36.984,6.872 L35.896,7.352 C36.632,8.984 37.08,10.264 37.752,12.152 L32.824,12.152 L32.824,13.336 L48.056,13.336 Z M46.712,24.856 C45.432,23.032 44.408,21.592 43.16,20.024 L42.296,20.664 C43.672,22.488 44.568,23.864 45.688,25.56 L46.712,24.856 Z M47.512,17.24 L41.208,17.24 L41.144,14.04 L39.896,14.04 L39.96,17.24 L33.176,17.24 L33.144,18.392 L39.064,18.392 C37.304,21.24 35.32,23.672 32.344,26.392 L33.272,27.224 C36.184,24.408 37.944,22.136 39.896,18.968 L39.896,30.2 L41.144,30.2 L41.144,18.392 L47.48,18.392 L47.512,17.24 Z M93.464,12.728 L93.464,11.608 L82.68,11.608 L82.68,4.12 C86.84,3.608 89.08,3.384 92.44,2.712 L91.704,1.592 C88.248,2.264 86.104,2.584 81.56,3.096 L81.56,16.216 C81.56,20.984 80.792,25.336 78.392,29.08 L79.48,29.752 C81.784,26.072 82.68,21.432 82.68,16.216 L82.68,12.728 L88.344,12.728 L88.344,30.136 L89.56,30.136 L89.56,12.728 L93.464,12.728 Z M73.56,3.864 C72.792,2.744 72.056,1.72 71.256,0.6 L70.392,1.176 C71.256,2.424 71.864,3.416 72.6,4.568 L73.56,3.864 Z M79.032,5.976 L79.032,4.856 L65.624,4.856 L65.624,5.976 L79.032,5.976 Z M80.056,13.336 L80.056,12.152 L75.224,12.152 C75.896,10.52 76.504,8.856 77.144,6.968 L75.992,6.552 C75.352,8.568 74.808,10.136 74.04,12.152 L71,12.152 C70.232,10.072 69.752,8.792 68.984,6.872 L67.896,7.352 C68.632,8.984 69.08,10.264 69.752,12.152 L64.824,12.152 L64.824,13.336 L80.056,13.336 Z M78.712,24.856 C77.432,23.032 76.408,21.592 75.16,20.024 L74.296,20.664 C75.672,22.488 76.568,23.864 77.688,25.56 L78.712,24.856 Z M79.512,17.24 L73.208,17.24 L73.144,14.04 L71.896,14.04 L71.96,17.24 L65.176,17.24 L65.144,18.392 L71.064,18.392 C69.304,21.24 67.32,23.672 64.344,26.392 L65.272,27.224 C68.184,24.408 69.944,22.136 71.896,18.968 L71.896,30.2 L73.144,30.2 L73.144,18.392 L79.48,18.392 L79.512,17.24 Z M120.952,29.848 C123.032,29.848 123.576,29.56 123.576,27.544 L123.576,2.104 L112.504,2.104 L112.504,10.744 L122.392,10.744 L122.392,27.544 C122.392,28.472 122.008,28.664 121.08,28.664 C120.28,28.664 119.192,28.536 118.328,28.376 L118.52,29.688 C119.256,29.784 120.184,29.848 120.952,29.848 L120.952,29.848 Z M115.736,25.496 C117.24,25.368 118.584,25.272 120.088,25.048 L119.992,23.992 C118.744,24.184 117.304,24.344 115.736,24.472 L115.736,14.456 L119.192,14.456 L119.192,13.368 L102.104,13.368 L102.104,14.456 L105.752,14.456 L105.752,25.304 C104.44,25.432 103.096,25.496 101.656,25.592 L101.848,26.776 C106.36,26.392 110.456,26.008 114.584,25.624 L114.584,28.696 L115.736,28.696 L115.736,25.496 Z M109.464,10.744 L109.464,2.104 L98.296,2.104 L98.296,30.2 L99.48,30.2 L99.48,10.744 L109.464,10.744 Z M122.392,5.848 L113.56,5.848 L113.56,3.192 L122.392,3.192 L122.392,5.848 Z M122.392,9.624 L113.56,9.624 L113.56,6.904 L122.392,6.904 L122.392,9.624 Z M108.312,5.848 L99.48,5.848 L99.48,3.192 L108.312,3.192 L108.312,5.848 Z M108.312,9.624 L99.48,9.624 L99.48,6.904 L108.312,6.904 L108.312,9.624 Z M114.584,17.048 L106.904,17.048 L106.904,14.456 L114.584,14.456 L114.584,17.048 Z M114.584,20.92 L106.904,20.92 L106.904,18.136 L114.584,18.136 L114.584,20.92 Z M114.584,24.568 C112.152,24.792 109.72,24.984 106.904,25.208 L106.904,22.04 L114.584,22.04 L114.584,24.568 Z" id="最新新聞"></path>
                </g>
            </g>
        </g>
    </g>
</svg>