<?xml version="1.0" encoding="UTF-8" standalone="no"?>
<svg width="100px" height="40px" viewBox="0 0 100 40" version="1.1" xmlns="http://www.w3.org/2000/svg" xmlns:xlink="http://www.w3.org/1999/xlink" xmlns:sketch="http://www.bohemiancoding.com/sketch/ns">
    <!-- Generator: Sketch 3.3.3 (12081) - http://www.bohemiancoding.com/sketch -->
    <title>logo-news-mobile-100x40</title>
    <desc>Created with Sketch.</desc>
    <defs></defs>
    <g id="news_page_index" stroke="none" stroke-width="1" fill="none" fill-rule="evenodd" sketch:type="MSPage">
        <g id="PTSnews-Index_pad-ver2_menu" sketch:type="MSArtboardGroup" transform="translate(-206.000000, -112.000000)">
            <g id="logo-news-mobile-100x40" sketch:type="MSLayerGroup" transform="translate(206.000000, 112.000000)">
                <rect id="Rectangle-4191" fill="#D8D8D8" sketch:type="MSShapeGroup" x="0" y="0" width="100" height="40"></rect>
                <path d="M26.96,13.552 L29.216,13.552 L29.216,25.04 L28.08,25.04 L28.08,14.672 L26.272,14.672 L26.96,13.552 Z M37.232,25.328 C35.9946605,25.328 35.04267,24.8186718 34.376,23.8 C33.70933,22.7813282 33.376,21.2800099 33.376,19.296 C33.376,17.3119901 33.70933,15.8106718 34.376,14.792 C35.04267,13.7733282 35.9893272,13.264 37.216,13.264 C38.4426728,13.264 39.4159964,13.7839948 40.136,14.824 C40.8560036,15.8640052 41.216,17.354657 41.216,19.296 C41.216,21.237343 40.853337,22.7279948 40.128,23.768 C39.402663,24.8080052 38.4373394,25.328 37.232,25.328 L37.232,25.328 Z M37.264,14.352 C36.3786622,14.352 35.6906691,14.7786624 35.2,15.632 C34.7093309,16.4853376 34.464,17.7173253 34.464,19.328 C34.464,22.6346832 35.397324,24.288 37.264,24.288 C38.1706712,24.288 38.8773308,23.8533377 39.384,22.984 C39.8906692,22.1146623 40.144,20.8853413 40.144,19.296 C40.144,17.7066587 39.8826693,16.4853376 39.36,15.632 C38.8373307,14.7786624 38.138671,14.352 37.264,14.352 L37.264,14.352 Z M46.096,25.328 C44.8586605,25.328 43.90667,24.8186718 43.24,23.8 C42.57333,22.7813282 42.24,21.2800099 42.24,19.296 C42.24,17.3119901 42.57333,15.8106718 43.24,14.792 C43.90667,13.7733282 44.8533272,13.264 46.08,13.264 C47.3066728,13.264 48.2799964,13.7839948 49,14.824 C49.7200036,15.8640052 50.08,17.354657 50.08,19.296 C50.08,21.237343 49.717337,22.7279948 48.992,23.768 C48.266663,24.8080052 47.3013394,25.328 46.096,25.328 L46.096,25.328 Z M46.128,14.352 C45.2426622,14.352 44.5546691,14.7786624 44.064,15.632 C43.5733309,16.4853376 43.328,17.7173253 43.328,19.328 C43.328,22.6346832 44.261324,24.288 46.128,24.288 C47.0346712,24.288 47.7413308,23.8533377 48.248,22.984 C48.7546692,22.1146623 49.008,20.8853413 49.008,19.296 C49.008,17.7066587 48.7466693,16.4853376 48.224,15.632 C47.7013307,14.7786624 47.002671,14.352 46.128,14.352 L46.128,14.352 Z M54.416,21.488 L51.952,25.04 L50.656,25.04 L53.76,20.56 L50.96,16.544 L52.272,16.544 L54.416,19.616 L56.544,16.544 L57.856,16.544 L55.072,20.544 L58.224,25.04 L56.896,25.04 L54.416,21.488 Z M65.088,13.264 L65.312,13.264 L65.312,21.264 L66.704,21.264 L66.704,22.368 L65.312,22.368 L65.312,25.04 L64.176,25.04 L64.176,22.368 L58.672,22.368 L65.088,13.264 Z M64.176,21.264 L64.176,16.48 L60.784,21.264 L64.176,21.264 Z M71.504,25.328 C70.2666605,25.328 69.31467,24.8186718 68.648,23.8 C67.98133,22.7813282 67.648,21.2800099 67.648,19.296 C67.648,17.3119901 67.98133,15.8106718 68.648,14.792 C69.31467,13.7733282 70.2613272,13.264 71.488,13.264 C72.7146728,13.264 73.6879964,13.7839948 74.408,14.824 C75.1280036,15.8640052 75.488,17.354657 75.488,19.296 C75.488,21.237343 75.125337,22.7279948 74.4,23.768 C73.674663,24.8080052 72.7093394,25.328 71.504,25.328 L71.504,25.328 Z M71.536,14.352 C70.6506622,14.352 69.9626691,14.7786624 69.472,15.632 C68.9813309,16.4853376 68.736,17.7173253 68.736,19.328 C68.736,22.6346832 69.669324,24.288 71.536,24.288 C72.4426712,24.288 73.1493308,23.8533377 73.656,22.984 C74.1626692,22.1146623 74.416,20.8853413 74.416,19.296 C74.416,17.7066587 74.1546693,16.4853376 73.632,15.632 C73.1093307,14.7786624 72.410671,14.352 71.536,14.352 L71.536,14.352 Z" id="100x40" fill="#403F3F" sketch:type="MSShapeGroup"></path>
            </g>
        </g>
    </g>
</svg>