<?xml version="1.0" encoding="utf-8"?>
<!-- Generator: Adobe Illustrator 19.0.0, SVG Export Plug-In . SVG Version: 6.00 Build 0)  -->
<svg version="1.1" id="圖層_1" xmlns="http://www.w3.org/2000/svg" xmlns:xlink="http://www.w3.org/1999/xlink" x="0px" y="0px"
	 viewBox="0 0 100 40" enable-background="new 0 0 100 40" xml:space="preserve">
<g id="XMLID_50_">
	<g id="XMLID_96_">
		<path id="XMLID_115_" fill="#084A94" d="M48.4,19.3H50l-1.2,3.2c-0.3,0.7-0.7,1.1-1.3,1.1h-0.8l0.3-1.5h0.3c0.1,0,0.2-0.2,0.4-0.5
			L48.4,19.3z M49.2,12.2h1.7l0.4,1.9h1.8l1.2-1.9H56l-1.2,1.9h1.5l-0.2,1.3h-3.3L52.5,17h3l-0.3,1.4h-3l-1,5.7h-1.5l1-5.7h-2.9
			L48,17H51l0.3-1.5H48l0.2-1.3h1.4L49.2,12.2z M52.1,9.4h1.8l-0.2,1h3l-0.2,1.3h-7.8l0.2-1.3h2.9L52.1,9.4z M52.7,19.4h1.5l0,2
			c0,0.3,0,0.4,0.1,0.4h0.5l-0.3,1.5h-1.1c-0.4,0-0.7-0.3-0.7-1L52.7,19.4z M63.6,9.4l-0.2,0.9c-0.2,0.9-0.7,1.3-1.6,1.3h-2.9
			l-0.3,1.9h4.6L63,15h-0.9l-1.6,9.2h-1.7l1.6-9.2h-2L57,22.5c-0.2,0.9-0.7,1.3-1.6,1.3h-0.8l0.3-1.5h0.2c0.1,0,0.2-0.1,0.3-0.2
			l2.1-11.9h3.9c0.3,0,0.5-0.3,0.6-0.8H63.6z"/>
		<path id="XMLID_104_" fill="#084A94" d="M67.8,15.7l-1.5,8.5h-1.6l2.5-14.3h6.1l-0.8,4.7c-0.1,0.7-0.7,1.1-1.6,1.1H67.8z M77,16.5
			l-0.2,1.2H76l-0.7,3.8l1,0l-0.2,1.2l-1,0L75,23.8h-1.5l0.2-1L67,23l0.2-1.2l0.9,0l0.7-4.1h-0.7l0.2-1.2H77z M68.2,13.4L68,14.4
			h2.6c0.3,0,0.4-0.1,0.4-0.3l0.1-0.8H68.2z M71.6,11.1h-3l-0.2,1.1h3L71.6,11.1z M69.7,21.7l4.1-0.2l0.1-0.7h-4.1L69.7,21.7z
			 M70,20h4.1l0.1-0.7h-4.1L70,20z M70.3,18.4h4.1l0.1-0.7h-4.1L70.3,18.4z M75.3,9.9h5.3L78.3,23c-0.1,0.7-0.7,1.1-1.7,1.1h-1
			l0.2-1.3h0.5c0.2,0,0.4-0.1,0.4-0.3l1.2-6.9h-3.3c-0.8,0-1.1-0.3-1-0.9l0.9-4.9H75.3z M78.2,14.4l0.2-1.1h-2.9l-0.1,0.7
			c0,0.2,0,0.4,0.2,0.4H78.2z M78.6,12.2l0.2-1.1h-2.9l-0.2,1.1H78.6z"/>
		<path id="XMLID_97_" fill="#084A94" d="M83.3,17.8h1.2l-1.3,4.3c-0.3,1-0.7,1.5-1.2,1.5h-0.6l0.3-1.4H82c0.1,0,0.2-0.2,0.4-0.7
			L83.3,17.8z M86.3,9.5h1.5L85.4,12h1.3l1.1-1.2h1.6l-4.5,4.9h1.6c0.2,0,0.3-0.1,0.3-0.2l0.3-1.6h1.3L88,16c0,0.2-0.2,0.4-0.4,0.6
			c-0.3,0.2-0.6,0.3-0.9,0.3h-0.5L85,24.1h-1.3l1.3-7.1h-2l0.2-0.9c0-0.2,0.2-0.4,0.6-0.8l1.9-2.1h-1.9l0.2-1.1
			c0-0.1,0.1-0.2,0.2-0.3L86.3,9.5z M86.4,17.9h1.2l-0.3,3.9c0,0.3,0,0.4,0.2,0.4h0.2l-0.2,1.3h-0.8c-0.4,0-0.6-0.4-0.6-1.1
			L86.4,17.9z M94,10h4.6l-2.2,12.7c-0.1,0.8-0.7,1.2-1.6,1.2h-2.3l0.2-1.4h1.8c0.2,0,0.3-0.1,0.4-0.3l1.9-10.9h-5.6L89,24.1h-1.5
			L90,10H94z M92.5,15.3H94l-0.2,1.3h1.7l-0.2,1.3h-2.6l-0.3,1.9c0,0.2,0,0.3,0.2,0.3h2.1l-0.2,1.3h-2.9c-0.6,0-0.8-0.3-0.7-0.8
			l0.5-2.8h-0.7l0.2-1.3h1.5L92.5,15.3z M91.9,12h1.3l-0.1,1.6h1l0.6-1.6h1.3l-0.6,1.6H96l-0.2,1.3h-4.7l0.2-1.3h0.5L91.9,12z"/>
	</g>
	<g id="XMLID_84_">
		<path id="XMLID_92_" fill="#004097" d="M8.4,7.6c0,0-0.7-0.1-0.7-1.4c0-1.3,0.9-1.4,0.9-1.4h11.7l1.1,5.5c0.1,0.4,0.2,0.6,0.4,0.6
			h0.6c0,0,0.6,0,0.5,1.4c0,1.2-0.9,1.3-0.9,1.3h-2.3c-0.8-0.1-1.3-0.6-1.5-1.5l-0.8-4.6H8.4z M10,8.6l-2.5,3.5
			c-0.7,1-1.5,1.5-2.4,1.5H3.7c0,0-0.9,0-0.9-1.4c0-1.3,1-1.4,1-1.4h0.6c0.6-0.1,1-0.2,1.2-0.6L7,8.6H10z M1.4,23.9l0.7-2.4
			l9.7-10.7c0,0,0.5-0.6,2.1-0.4c1.8,0.2,1.5,1.5,1.5,1.5l-8.2,9h7.9c0.6,0,0.6,0,0.4-0.7l-0.7-3.7c0,0,0-1.1,1.9-1.2
			c1.4-0.1,1.6,1.2,1.6,1.2l0.7,4.6c0,1.8-0.7,2.7-2.2,2.7H5.1H1.4z"/>
		<path id="XMLID_87_" fill="#004097" d="M40.6,18.4c0.6-0.3,1.1-0.9,1.4-1.8l3.4-11.8h-1.6h-1.7h-3h-1.6h-1.7l-2.3,7.8
			c1.5,0.5,2.2,1.9,1.7,3.6c-0.4,1.3-1.4,2.5-2.6,3.2L31.8,21c-0.2,0.4-0.5,0.6-0.9,0.6c0,0-0.8-0.2-1,1.4c-0.2,1.4,0.9,1.2,0.9,1.2
			l0.9,0c1.1,0,2-0.5,2.5-1.5l2.2-4.1h0.8l-1,3.6c-0.4,1.3,0.1,2,1.4,2h2.9c0,0,0.7,0.1,1.1-1.3c0.4-1.4-0.4-1.3-0.4-1.3h-1
			c-0.3,0-0.4-0.2-0.3-0.5L40.6,18.4z M38.5,7h3L41,8.5h-3L38.5,7z M38.9,15.5c-0.1,0.3-0.3,0.5-0.6,0.5h-2.5l0.5-1.6h3L38.9,15.5z
			 M36.8,12.3l0.5-1.6h3l-0.5,1.6H36.8z"/>
		<path id="XMLID_20_" fill="#004097" d="M27.6,16.2c0.5-1.7,2-3.1,3.6-3.6c1.2-1.3,2.1-2.4,2.7-3.4c0.2-0.5,0.3-1,0.2-1.4
			c-0.1-0.4-0.5-0.6-1-0.6h-1.5L32,5.8c0.1-0.4,0-0.7-0.2-0.9c-0.3-0.2-0.6-0.2-1-0.2c-0.4,0-0.8,0.1-1.2,0.3
			c-0.3,0.2-0.5,0.4-0.7,0.8l-0.4,1.4h-1.3c-0.4,0-0.7,0.1-1,0.3c-0.3,0.3-0.4,0.6-0.5,0.9c-0.1,0.3-0.1,0.6,0,0.9
			c0.1,0.2,0.4,0.3,0.7,0.4h4c0.2,0-2.9,3.4-5.9,5.2c-1,0.4-1.3,1-1.1,1.9c0.1,0.3,0.3,0.6,0.6,0.7c0.2,0.2,0.5,0.2,0.9,0
			c0.4-0.3,0.8-0.6,1.2-0.8l-1.9,6.5c-0.1,0.3,0,0.6,0.2,0.7c0.2,0.2,0.5,0.2,0.9,0.2c0.4,0,0.8-0.1,1.1-0.2
			c0.4-0.2,0.6-0.4,0.7-0.7l1.1-3.8C27.6,18.8,27.2,17.6,27.6,16.2z"/>
		<path id="XMLID_19_" fill="#E50012" d="M30.6,18.9c1.5,0,3.1-1.3,3.5-2.8c0.4-1.5-0.5-2.7-2-2.7c-1.5,0-3.1,1.3-3.5,2.8
			C28.2,17.7,29.1,19,30.6,18.9z"/>
	</g>
	<g id="XMLID_51_">
		<path id="XMLID_81_" fill="#E6211A" d="M2,29.4c0.5-0.1,1.1-0.2,1.9-0.2c1,0,1.7,0.2,2.2,0.7c0.4,0.4,0.7,0.9,0.7,1.6
			c0,0.7-0.2,1.3-0.6,1.7c-0.5,0.6-1.4,0.9-2.4,0.9c-0.3,0-0.6,0-0.8-0.1v3.1H2V29.4z M3,33.2c0.2,0.1,0.5,0.1,0.8,0.1
			c1.2,0,2-0.6,2-1.7c0-1-0.7-1.5-1.8-1.5c-0.4,0-0.8,0-1,0.1V33.2z"/>
		<path id="XMLID_79_" fill="#E6211A" d="M10,30.2H7.7v-0.9h5.8v0.9h-2.4v7h-1V30.2z"/>
		<path id="XMLID_77_" fill="#E6211A" d="M14.5,35.9c0.5,0.3,1.1,0.5,1.8,0.5c1,0,1.6-0.5,1.6-1.3c0-0.7-0.4-1.2-1.5-1.5
			c-1.3-0.5-2.1-1.1-2.1-2.2c0-1.2,1-2.1,2.5-2.1c0.8,0,1.4,0.2,1.7,0.4l-0.3,0.8c-0.2-0.2-0.8-0.4-1.5-0.4c-1.1,0-1.5,0.6-1.5,1.2
			c0,0.7,0.5,1.1,1.6,1.5c1.3,0.5,2,1.2,2,2.3c0,1.2-0.9,2.3-2.7,2.3c-0.8,0-1.6-0.2-2-0.5L14.5,35.9z"/>
		<path id="XMLID_75_" fill="#E6211A" d="M23.5,37.1v-7.8h1.1l2.5,4c0.6,0.9,1,1.7,1.4,2.5l0,0c-0.1-1-0.1-2-0.1-3.2v-3.3h1v7.8h-1
			l-2.5-4c-0.5-0.9-1.1-1.8-1.5-2.6l0,0c0.1,1,0.1,1.9,0.1,3.2v3.3H23.5z"/>
		<path id="XMLID_72_" fill="#E6211A" d="M32,34.5c0,1.4,0.9,2,1.9,2c0.7,0,1.2-0.1,1.6-0.3l0.2,0.7c-0.4,0.2-1,0.4-1.9,0.4
			c-1.7,0-2.8-1.2-2.8-2.8c0-1.7,1-3,2.6-3c1.8,0,2.3,1.6,2.3,2.6c0,0.2,0,0.4,0,0.5H32z M35,33.8c0-0.6-0.3-1.7-1.4-1.7
			c-1,0-1.5,0.9-1.6,1.7H35z"/>
		<path id="XMLID_70_" fill="#E6211A" d="M38.1,31.5l0.8,2.9c0.2,0.6,0.3,1.2,0.4,1.8h0c0.1-0.6,0.3-1.2,0.5-1.8l0.9-2.9h0.9
			l0.9,2.8c0.2,0.7,0.4,1.3,0.5,1.8h0c0.1-0.6,0.2-1.2,0.4-1.8l0.8-2.8h1l-1.8,5.6h-0.9l-0.9-2.7c-0.2-0.6-0.4-1.2-0.5-1.8h0
			c-0.1,0.7-0.3,1.3-0.5,1.9l-0.9,2.7h-0.9L37,31.5H38.1z"/>
		<path id="XMLID_68_" fill="#E6211A" d="M46.3,36.1c0.3,0.2,0.8,0.4,1.4,0.4c0.7,0,1.1-0.4,1.1-0.8c0-0.5-0.3-0.7-1-1
			c-1-0.4-1.5-0.9-1.5-1.6c0-0.9,0.7-1.7,1.9-1.7c0.6,0,1.1,0.2,1.4,0.3l-0.2,0.7c-0.2-0.1-0.6-0.3-1.2-0.3c-0.6,0-0.9,0.3-0.9,0.8
			c0,0.5,0.3,0.7,1.1,1c1,0.4,1.5,0.8,1.5,1.7c0,1-0.8,1.7-2.1,1.7c-0.6,0-1.2-0.2-1.6-0.4L46.3,36.1z"/>
		<path id="XMLID_66_" fill="#E6211A" d="M54.3,37.1v-7.8h1.1l2.5,4c0.6,0.9,1,1.7,1.4,2.5l0,0c-0.1-1-0.1-2-0.1-3.2v-3.3h1v7.8h-1
			l-2.5-4c-0.5-0.9-1.1-1.8-1.5-2.6l0,0c0.1,1,0.1,1.9,0.1,3.2v3.3H54.3z"/>
		<path id="XMLID_63_" fill="#E6211A" d="M62.8,34.5c0,1.4,0.9,2,1.9,2c0.7,0,1.2-0.1,1.6-0.3l0.2,0.7c-0.4,0.2-1,0.4-1.9,0.4
			c-1.7,0-2.8-1.2-2.8-2.8c0-1.7,1-3,2.6-3c1.8,0,2.3,1.6,2.3,2.6c0,0.2,0,0.4,0,0.5H62.8z M65.8,33.8c0-0.6-0.3-1.7-1.4-1.7
			c-1,0-1.5,0.9-1.6,1.7H65.8z"/>
		<path id="XMLID_61_" fill="#E6211A" d="M69.7,30.2v1.3h1.5v0.8h-1.5v3c0,0.7,0.2,1.1,0.8,1.1c0.3,0,0.4,0,0.6-0.1l0,0.8
			c-0.2,0.1-0.5,0.1-0.9,0.1c-0.5,0-0.9-0.2-1.1-0.4c-0.3-0.3-0.4-0.8-0.4-1.5v-3.1h-0.9v-0.8h0.9v-1L69.7,30.2z"/>
		<path id="XMLID_59_" fill="#E6211A" d="M73.1,31.5l0.8,2.9c0.2,0.6,0.3,1.2,0.4,1.8h0c0.1-0.6,0.3-1.2,0.5-1.8l0.9-2.9h0.9
			l0.9,2.8c0.2,0.7,0.4,1.3,0.5,1.8h0c0.1-0.6,0.2-1.2,0.4-1.8l0.8-2.8h1l-1.8,5.6h-0.9l-0.9-2.7c-0.2-0.6-0.4-1.2-0.5-1.8h0
			c-0.1,0.7-0.3,1.3-0.5,1.9l-0.9,2.7h-0.9l-1.7-5.6H73.1z"/>
		<path id="XMLID_56_" fill="#E6211A" d="M86.6,34.3c0,2.1-1.5,3-2.8,3c-1.5,0-2.7-1.1-2.7-2.9c0-1.9,1.2-3,2.8-3
			C85.5,31.4,86.6,32.6,86.6,34.3z M82.1,34.3c0,1.2,0.7,2.2,1.7,2.2c1,0,1.7-0.9,1.7-2.2c0-1-0.5-2.2-1.7-2.2
			C82.7,32.2,82.1,33.3,82.1,34.3z"/>
		<path id="XMLID_54_" fill="#E6211A" d="M88.2,33.3c0-0.7,0-1.2,0-1.8h0.9l0,1.1h0c0.3-0.8,0.9-1.2,1.6-1.2c0.1,0,0.2,0,0.3,0v1
			c-0.1,0-0.2,0-0.3,0c-0.7,0-1.2,0.5-1.4,1.3c0,0.1,0,0.3,0,0.5v3h-1V33.3z"/>
		<path id="XMLID_52_" fill="#E6211A" d="M93.4,34.1L93.4,34.1c0.2-0.2,0.3-0.4,0.5-0.6l1.7-1.9h1.2l-2.2,2.3l2.5,3.3h-1.3L94,34.4
			L93.4,35v2.1h-1v-8.3h1V34.1z"/>
	</g>
</g>
</svg>
