<?xml version="1.0" encoding="UTF-8" standalone="no"?>
<svg width="78px" height="60px" viewBox="0 0 78 60" version="1.1" xmlns="http://www.w3.org/2000/svg" xmlns:xlink="http://www.w3.org/1999/xlink" xmlns:sketch="http://www.bohemiancoding.com/sketch/ns">
    <!-- Generator: Sketch 3.3.3 (12081) - http://www.bohemiancoding.com/sketch -->
    <title>pts_logo_78x60</title>
    <desc>Created with Sketch.</desc>
    <defs></defs>
    <g id="header" stroke="none" stroke-width="1" fill="none" fill-rule="evenodd" sketch:type="MSPage">
        <g id="PTS_header_ver7_2_no_second_blue_1" sketch:type="MSArtboardGroup" transform="translate(-63.000000, -24.000000)">
            <g id="family_header" sketch:type="MSLayerGroup" transform="translate(0.000000, -1.000000)">
                <g id="header_bg" sketch:type="MSShapeGroup">
                    <g id="pts_logo_78x60" transform="translate(63.000000, 25.000000)">
                        <rect id="Rectangle-1447" fill="#D8D8D8" x="0" y="0" width="78" height="60"></rect>
                        <path d="M18.152,23.552 L25.432,23.552 L19.288,35.328 L18.344,34.848 L23.656,24.64 L18.152,24.64 L18.152,23.552 Z M32.008,28.736 C33.4586739,29.4506702 34.184,30.4533269 34.184,31.744 C34.184,32.7680051 33.8240036,33.6213299 33.104,34.304 C32.3839964,34.9866701 31.4400058,35.328 30.272,35.328 C29.1039942,35.328 28.1680035,34.9866701 27.464,34.304 C26.7599965,33.6213299 26.408,32.8000048 26.408,31.84 C26.408,30.4959933 27.1493259,29.461337 28.632,28.736 C27.5119944,28.1386637 26.952,27.3120053 26.952,26.256 C26.952,25.4666627 27.2799967,24.7706697 27.936,24.168 C28.5920033,23.5653303 29.3839954,23.264 30.312,23.264 C31.2400046,23.264 32.0293301,23.5573304 32.68,24.144 C33.3306699,24.7306696 33.656,25.4453291 33.656,26.288 C33.656,27.3120051 33.1066722,28.127997 32.008,28.736 L32.008,28.736 Z M32.504,26.24 C32.504,25.7279974 32.304002,25.2880018 31.904,24.92 C31.503998,24.5519982 30.9813366,24.368 30.336,24.368 C29.6906634,24.368 29.1600021,24.5519982 28.744,24.92 C28.3279979,25.2880018 28.12,25.7333307 28.12,26.256 C28.12,26.7786693 28.3466644,27.2453313 28.8,27.656 C29.2533356,28.0666687 29.7679971,28.272 30.344,28.272 C30.9200029,28.272 31.4239978,28.0693354 31.856,27.664 C32.2880022,27.2586646 32.504,26.7840027 32.504,26.24 L32.504,26.24 Z M33.032,31.76 C33.032,31.1093301 32.7680026,30.5386691 32.24,30.048 C31.7119974,29.5573309 31.0720038,29.312 30.32,29.312 C29.5679962,29.312 28.9200027,29.5653308 28.376,30.072 C27.8319973,30.5786692 27.56,31.1759966 27.56,31.864 C27.56,32.5520034 27.8106642,33.1199978 28.312,33.568 C28.8133358,34.0160022 29.4693293,34.24 30.28,34.24 C31.0906707,34.24 31.7519974,34.0000024 32.264,33.52 C32.7760026,33.0399976 33.032,32.4533368 33.032,31.76 L33.032,31.76 Z M38.552,31.488 L36.088,35.04 L34.792,35.04 L37.896,30.56 L35.096,26.544 L36.408,26.544 L38.552,29.616 L40.68,26.544 L41.992,26.544 L39.208,30.544 L42.36,35.04 L41.032,35.04 L38.552,31.488 Z M48.28,23.264 L49.224,23.872 L46.12,28.576 C46.5573355,28.4266659 46.9733314,28.352 47.368,28.352 C48.2213376,28.352 48.9679968,28.6906633 49.608,29.368 C50.2480032,30.0453367 50.568,30.8719951 50.568,31.848 C50.568,32.8240049 50.2186702,33.6479966 49.52,34.32 C48.8213298,34.9920034 47.9733383,35.328 46.976,35.328 C45.9786617,35.328 45.14667,34.9866701 44.48,34.304 C43.81333,33.6213299 43.48,32.7893382 43.48,31.808 C43.48,31.3386643 43.5706658,30.8560025 43.752,30.36 C43.9333342,29.8639975 44.2799974,29.2320038 44.792,28.464 L48.28,23.264 Z M49.432,31.792 C49.432,31.1199966 49.1973357,30.5493357 48.728,30.08 C48.2586643,29.6106643 47.6880034,29.376 47.016,29.376 C46.3439966,29.376 45.7733357,29.6106643 45.304,30.08 C44.8346643,30.5493357 44.6,31.1199966 44.6,31.792 C44.6,32.4640034 44.837331,33.0346643 45.312,33.504 C45.786669,33.9733357 46.3546634,34.208 47.016,34.208 C47.6773366,34.208 48.245331,33.9733357 48.72,33.504 C49.194669,33.0346643 49.432,32.4640034 49.432,31.792 L49.432,31.792 Z M55.64,35.328 C54.4026605,35.328 53.45067,34.8186718 52.784,33.8 C52.11733,32.7813282 51.784,31.2800099 51.784,29.296 C51.784,27.3119901 52.11733,25.8106718 52.784,24.792 C53.45067,23.7733282 54.3973272,23.264 55.624,23.264 C56.8506728,23.264 57.8239964,23.7839948 58.544,24.824 C59.2640036,25.8640052 59.624,27.354657 59.624,29.296 C59.624,31.237343 59.261337,32.7279948 58.536,33.768 C57.810663,34.8080052 56.8453394,35.328 55.64,35.328 L55.64,35.328 Z M55.672,24.352 C54.7866622,24.352 54.0986691,24.7786624 53.608,25.632 C53.1173309,26.4853376 52.872,27.7173253 52.872,29.328 C52.872,32.6346832 53.805324,34.288 55.672,34.288 C56.5786712,34.288 57.2853308,33.8533377 57.792,32.984 C58.2986692,32.1146623 58.552,30.8853413 58.552,29.296 C58.552,27.7066587 58.2906693,26.4853376 57.768,25.632 C57.2453307,24.7786624 56.546671,24.352 55.672,24.352 L55.672,24.352 Z" id="78x60" fill="#403F3F"></path>
                    </g>
                </g>
            </g>
        </g>
    </g>
</svg>