<?xml version="1.0" encoding="UTF-8" standalone="no"?>
<svg width="190px" height="31px" viewBox="0 0 190 31" version="1.1" xmlns="http://www.w3.org/2000/svg" xmlns:xlink="http://www.w3.org/1999/xlink" xmlns:sketch="http://www.bohemiancoding.com/sketch/ns">
    <!-- Generator: Sketch 3.3.3 (12081) - http://www.bohemiancoding.com/sketch -->
    <title>category-title</title>
    <desc>Created with Sketch.</desc>
    <defs></defs>
    <g id="news_page_index" stroke="none" stroke-width="1" fill="none" fill-rule="evenodd" sketch:type="MSPage">
        <g id="PTSnews-Index_pad-ver2_menu" sketch:type="MSArtboardGroup" transform="translate(-22.000000, -1262.000000)" fill="#000000">
            <g id="Group_category_ver2" sketch:type="MSLayerGroup" transform="translate(20.000000, 1262.000000)">
                <g id="category-title" transform="translate(2.000000, 0.000000)" sketch:type="MSShapeGroup">
                    <path d="M29.136,16.696 C25.52,13.688 22.256,9.272 19.344,2.2 L13.232,2.2 L13.232,3.448 L18.64,3.448 C21.648,10.392 24.432,14.264 28.304,17.944 L29.136,16.696 Z M27.92,29.144 C25.392,25.656 22.704,22.008 20.112,18.68 L19.152,19.448 C20.688,21.4 22,23.032 23.376,25.048 C17.232,25.72 12.272,25.944 7.44,26.296 C10.512,21.272 13.008,16.344 15.408,10.808 L14.224,10.168 C11.76,15.928 9.168,21.112 6,26.36 C4.752,26.456 3.376,26.456 2.32,26.456 L2.672,27.832 C10.96,27.32 17.52,27.096 24.336,26.232 L26.896,30.072 L27.92,29.144 Z M1.424,17.976 C5.712,12.568 7.792,9.272 10.512,3.736 L9.392,3.224 C6.736,8.632 4.624,12.12 0.464,17.144 L1.424,17.976 Z M61.2,27.032 C61.328,25.912 61.328,25.048 61.36,23.928 L60.144,23.416 C60.112,24.792 60.08,25.752 59.984,26.68 C59.888,27.736 59.504,27.992 58.512,28.024 L55.44,28.024 C54.288,27.992 54.192,27.672 54.192,26.488 L54.192,19.896 L58.576,19.896 L58.576,2.328 L45.264,2.328 L45.264,19.896 L49.136,19.896 C48.624,24.408 46.416,26.712 41.552,29.016 L42.16,30.072 C46.48,28.12 49.68,25.208 50.192,19.896 L53.04,19.896 L53.04,26.488 C53.04,28.408 53.232,29.08 55.44,29.176 L58.512,29.176 C60.368,29.08 61.04,28.824 61.2,27.032 L61.2,27.032 Z M39.12,5.72 C37.936,3.672 37.168,2.488 35.952,0.856 L35.024,1.496 C36.144,3.128 36.816,4.376 38.032,6.456 L39.12,5.72 Z M43.824,19.48 C42.384,17.688 41.456,16.696 40.112,15.352 L39.312,16.152 C40.656,17.592 41.424,18.552 42.896,20.376 L43.824,19.48 Z M38.768,14.424 C40.56,12.152 42,9.816 43.152,7 L32.528,7 L32.528,8.12 L41.328,8.12 C39.44,12.408 35.376,17.24 32.048,19.704 L32.88,20.696 C34.512,19.384 35.984,17.688 37.552,15.896 L37.552,30.2 L38.768,30.2 L38.768,14.424 Z M57.424,7.736 L46.384,7.736 L46.384,3.416 L57.424,3.416 L57.424,7.736 Z M57.424,12.952 L46.384,12.952 L46.384,8.824 L57.424,8.824 L57.424,12.952 Z M57.424,18.808 L46.384,18.808 L46.384,14.04 L57.424,14.04 L57.424,18.808 Z M93.264,12.728 L93.264,11.608 L82.48,11.608 L82.48,4.12 C86.64,3.608 88.88,3.384 92.24,2.712 L91.504,1.592 C88.048,2.264 85.904,2.584 81.36,3.096 L81.36,16.216 C81.36,20.984 80.592,25.336 78.192,29.08 L79.28,29.752 C81.584,26.072 82.48,21.432 82.48,16.216 L82.48,12.728 L88.144,12.728 L88.144,30.136 L89.36,30.136 L89.36,12.728 L93.264,12.728 Z M73.36,3.864 C72.592,2.744 71.856,1.72 71.056,0.6 L70.192,1.176 C71.056,2.424 71.664,3.416 72.4,4.568 L73.36,3.864 Z M78.832,5.976 L78.832,4.856 L65.424,4.856 L65.424,5.976 L78.832,5.976 Z M79.856,13.336 L79.856,12.152 L75.024,12.152 C75.696,10.52 76.304,8.856 76.944,6.968 L75.792,6.552 C75.152,8.568 74.608,10.136 73.84,12.152 L70.8,12.152 C70.032,10.072 69.552,8.792 68.784,6.872 L67.696,7.352 C68.432,8.984 68.88,10.264 69.552,12.152 L64.624,12.152 L64.624,13.336 L79.856,13.336 Z M78.512,24.856 C77.232,23.032 76.208,21.592 74.96,20.024 L74.096,20.664 C75.472,22.488 76.368,23.864 77.488,25.56 L78.512,24.856 Z M79.312,17.24 L73.008,17.24 L72.944,14.04 L71.696,14.04 L71.76,17.24 L64.976,17.24 L64.944,18.392 L70.864,18.392 C69.104,21.24 67.12,23.672 64.144,26.392 L65.072,27.224 C67.984,24.408 69.744,22.136 71.696,18.968 L71.696,30.2 L72.944,30.2 L72.944,18.392 L79.28,18.392 L79.312,17.24 Z M120.752,29.848 C122.832,29.848 123.376,29.56 123.376,27.544 L123.376,2.104 L112.304,2.104 L112.304,10.744 L122.192,10.744 L122.192,27.544 C122.192,28.472 121.808,28.664 120.88,28.664 C120.08,28.664 118.992,28.536 118.128,28.376 L118.32,29.688 C119.056,29.784 119.984,29.848 120.752,29.848 L120.752,29.848 Z M115.536,25.496 C117.04,25.368 118.384,25.272 119.888,25.048 L119.792,23.992 C118.544,24.184 117.104,24.344 115.536,24.472 L115.536,14.456 L118.992,14.456 L118.992,13.368 L101.904,13.368 L101.904,14.456 L105.552,14.456 L105.552,25.304 C104.24,25.432 102.896,25.496 101.456,25.592 L101.648,26.776 C106.16,26.392 110.256,26.008 114.384,25.624 L114.384,28.696 L115.536,28.696 L115.536,25.496 Z M109.264,10.744 L109.264,2.104 L98.096,2.104 L98.096,30.2 L99.28,30.2 L99.28,10.744 L109.264,10.744 Z M122.192,5.848 L113.36,5.848 L113.36,3.192 L122.192,3.192 L122.192,5.848 Z M122.192,9.624 L113.36,9.624 L113.36,6.904 L122.192,6.904 L122.192,9.624 Z M108.112,5.848 L99.28,5.848 L99.28,3.192 L108.112,3.192 L108.112,5.848 Z M108.112,9.624 L99.28,9.624 L99.28,6.904 L108.112,6.904 L108.112,9.624 Z M114.384,17.048 L106.704,17.048 L106.704,14.456 L114.384,14.456 L114.384,17.048 Z M114.384,20.92 L106.704,20.92 L106.704,18.136 L114.384,18.136 L114.384,20.92 Z M114.384,24.568 C111.952,24.792 109.52,24.984 106.704,25.208 L106.704,22.04 L114.384,22.04 L114.384,24.568 Z M157.328,15.48 C152.496,11.416 150.384,8.248 149.008,2.136 L141.488,2.136 L141.488,3.416 L147.888,3.416 C149.232,8.408 151.664,12.6 156.4,16.664 L157.328,15.48 Z M129.104,16.408 C133.296,11.544 135.504,8.248 138.256,2.84 L137.072,2.264 C134.416,7.448 132.24,10.904 128.08,15.416 L129.104,16.408 Z M150.48,26.392 C150.896,24.248 151.28,18.328 151.28,12.76 L133.808,12.76 L133.808,14.04 L140.56,14.04 C140.048,19.544 138.224,24.568 129.36,28.408 L130,29.688 C138.896,25.592 141.264,20.184 141.872,14.04 L150.032,14.04 C150.032,18.296 149.584,24.344 149.168,26.424 C148.912,27.576 148.176,27.864 146.8,27.864 C145.104,27.864 143.344,27.576 141.424,27.096 L141.52,28.664 C143.216,29.016 144.912,29.208 146.704,29.208 C149.296,29.208 150.032,28.472 150.48,26.392 L150.48,26.392 Z M189.168,3.32 L189.168,2.232 L174.736,2.232 L174.736,3.32 L181.136,3.32 L180.016,7.16 L176.112,7.16 L176.112,24.312 L187.568,24.312 L187.568,7.16 L181.232,7.16 L182.352,3.32 L189.168,3.32 Z M170.48,6.936 C171.6,5.496 172.496,4.152 173.392,2.712 L172.528,2.136 C171.664,3.576 170.8,4.728 169.616,6.232 L170.48,6.936 Z M165.84,6.264 C164.816,4.728 164.048,3.704 162.896,2.136 L162.064,2.776 C163.184,4.28 163.92,5.368 164.912,6.936 L165.84,6.264 Z M174.448,13.944 C172.848,12.6 171.568,11.576 169.936,10.392 L169.328,11.224 C170.896,12.472 172.144,13.464 173.712,14.872 L174.448,13.944 Z M174.448,9.08 L174.448,7.992 L168.272,7.992 L168.272,0.76 L167.184,0.76 L167.184,7.992 L160.784,7.992 L160.784,9.08 L166.544,9.08 C164.656,11.352 162.64,13.048 160.08,14.68 L160.784,15.64 C163.088,14.072 165.264,11.96 167.184,9.784 L167.184,15.768 L168.272,15.768 L168.272,9.08 L174.448,9.08 Z M189.52,29.016 C187.472,27.64 185.936,26.648 183.632,25.304 L183.024,26.232 C185.328,27.608 186.96,28.728 188.848,30.104 L189.52,29.016 Z M173.552,18.168 C172.496,17.176 171.536,16.344 170.416,15.416 L169.744,16.216 C170.8,17.112 171.76,17.944 172.816,19 L173.552,18.168 Z M173.488,30.104 C175.952,28.856 177.904,27.672 180.304,26.04 L179.664,25.144 C177.264,26.68 175.472,27.768 172.848,29.048 L173.488,30.104 Z M174.704,21.144 L174.704,19.992 L168.144,19.992 C168.272,19.064 168.304,18.104 168.4,16.92 L167.216,16.824 C167.184,18.008 167.12,19.064 166.992,19.992 L160.528,19.992 L160.528,21.144 L166.768,21.144 C165.808,24.44 162.896,27.064 160.176,28.728 L160.912,29.784 C163.376,28.216 165.648,26.072 167.088,23.384 C169.232,24.664 171.088,25.976 173.136,27.608 L173.84,26.52 C171.792,25.016 169.712,23.64 167.568,22.392 C167.696,21.976 167.856,21.528 167.952,21.144 L174.704,21.144 Z M186.352,12.44 L177.296,12.44 L177.296,8.28 L186.352,8.28 L186.352,12.44 Z M186.352,17.432 L177.296,17.432 L177.296,13.528 L186.352,13.528 L186.352,17.432 Z M186.352,23.16 L177.296,23.16 L177.296,18.52 L186.352,18.52 L186.352,23.16 Z" id="公視新聞分類"></path>
                </g>
            </g>
        </g>
    </g>
</svg>