<?xml version="1.0" encoding="UTF-8" standalone="no"?>
<svg width="45px" height="44px" viewBox="0 0 45 44" version="1.1" xmlns="http://www.w3.org/2000/svg" xmlns:xlink="http://www.w3.org/1999/xlink" xmlns:sketch="http://www.bohemiancoding.com/sketch/ns">
    <!-- Generator: Sketch 3.3.3 (12081) - http://www.bohemiancoding.com/sketch -->
    <title>ic_g+</title>
    <desc>Created with Sketch.</desc>
    <defs>
        <rect id="path-1" x="0" y="0" width="44" height="44"></rect>
    </defs>
    <g id="news_article" stroke="none" stroke-width="1" fill="none" fill-rule="evenodd" sketch:type="MSPage">
        <g id="PTSNews-News-list_ver2" sketch:type="MSArtboardGroup" transform="translate(-179.000000, -793.000000)">
            <g id="social_share_up-copy" sketch:type="MSLayerGroup" transform="translate(76.000000, 793.000000)">
                <g id="ic_g+" transform="translate(103.812500, 0.000000)">
                    <mask id="mask-2" sketch:name="Mask" fill="white">
                        <use xlink:href="#path-1"></use>
                    </mask>
                    <use id="Mask" fill="#D34836" sketch:type="MSShapeGroup" xlink:href="#path-1"></use>
                    <path d="M18.3686743,31.9684781 C15.756702,31.9684781 13.8716405,30.3033793 13.8716405,28.3039599 C13.8716405,26.3435663 16.2111826,24.7109889 18.8218637,24.7396078 C19.4299897,24.747413 19.9980905,24.8449774 20.5132546,25.0127881 C21.929633,26.0066439 22.9470497,26.5673139 23.2336824,27.6990607 C23.2879102,27.9293127 23.3176064,28.1634672 23.3176064,28.4054269 C23.3176064,30.4061471 22.0380886,31.9684781 18.3686743,31.9684781 M19.0542686,20.2399386 C17.3021943,20.1866034 15.6366262,18.2652355 15.3344999,15.9471058 C15.0323736,13.6289761 16.2073092,11.8546052 17.9593835,11.9066395 C19.7101667,11.9599747 21.3770259,13.8189014 21.6791522,16.138332 C21.9812785,18.4564617 20.8063429,20.2932738 19.0542686,20.2399386 M22.6862399,23.6729039 C22.0716582,23.2345146 20.8980137,22.1691116 20.8980137,21.5420978 C20.8980137,20.805812 21.1058869,20.4454742 22.2020631,19.5817042 C23.3266443,18.6958196 24.1232765,17.4508981 24.1232765,16.0043435 C24.1232765,14.2794053 23.3615051,12.5999971 21.9309241,12.0458314 L24.0871246,12.0458314 L25.6093764,10.9375 L18.8076612,10.9375 C15.7605755,10.9375 12.8903756,13.2647357 12.8903756,15.9601144 C12.8903756,18.7153325 14.9691078,20.9384995 18.0704214,20.9384995 C18.2873326,20.9384995 18.4952058,20.934597 18.7004968,20.9189867 C18.5003704,21.3066425 18.3544718,21.7450317 18.3544718,22.1977305 C18.3544718,22.9639361 18.7637625,23.5857464 19.2815089,24.0917803 C18.8902941,24.0917803 18.5119906,24.1034881 18.1026999,24.1034881 C14.3261211,24.1034881 11.4184783,26.5256864 11.4184783,29.0402458 C11.4184783,31.5144785 14.6062981,33.0625 18.3815857,33.0625 C22.6862399,33.0625 25.0658073,30.6012759 25.0658073,28.1257423 C25.0658073,26.1419332 24.483504,24.9529486 22.6862399,23.6729039 M32.5815217,20.4415716 L29.9346888,20.4415716 L29.9346888,17.7748119 L27.8030199,17.7748119 L27.8030199,20.4415716 L25.1561869,20.4415716 L25.1561869,22.5892889 L27.8030199,22.5892889 L27.8030199,25.2560486 L29.9346888,25.2560486 L29.9346888,22.5892889 L32.5815217,22.5892889 L32.5815217,20.4415716" id="Shape-Copy-2" fill="#FFFFFF" sketch:type="MSShapeGroup" mask="url(#mask-2)"></path>
                </g>
            </g>
        </g>
    </g>
</svg>