<?xml version="1.0" encoding="UTF-8" standalone="no"?>
<svg width="45px" height="44px" viewBox="0 0 45 44" version="1.1" xmlns="http://www.w3.org/2000/svg" xmlns:xlink="http://www.w3.org/1999/xlink" xmlns:sketch="http://www.bohemiancoding.com/sketch/ns">
    <!-- Generator: Sketch 3.3.3 (12081) - http://www.bohemiancoding.com/sketch -->
    <title>ic_linkin</title>
    <desc>Created with Sketch.</desc>
    <defs>
        <rect id="path-1" x="0" y="0" width="44" height="44"></rect>
    </defs>
    <g id="news_article" stroke="none" stroke-width="1" fill="none" fill-rule="evenodd" sketch:type="MSPage">
        <g id="PTSNews-News-list_ver2" sketch:type="MSArtboardGroup" transform="translate(-336.000000, -793.000000)">
            <g id="social_share_up-copy" sketch:type="MSLayerGroup" transform="translate(76.000000, 793.000000)">
                <g id="ic_linkin" transform="translate(260.562500, 0.000000)">
                    <mask id="mask-2" sketch:name="Mask" fill="white">
                        <use xlink:href="#path-1"></use>
                    </mask>
                    <use id="Mask" fill="#007BB6" sketch:type="MSShapeGroup" xlink:href="#path-1"></use>
                    <g id="in" mask="url(#mask-2)" fill="#FFFFFF" sketch:type="MSShapeGroup">
                        <g transform="translate(11.000000, 10.312500)" id="Path">
                            <path d="M5.39172325,7.36299739 L0.717647223,7.36299739 L0.717647223,21.4066557 L5.39172325,21.4066557 L5.39172325,7.36299739 Z"></path>
                            <path d="M5.69956969,3.01872734 C5.6692331,1.64175554 4.68455386,0.592971502 3.08558189,0.592971502 C1.48660992,0.592971502 0.441257497,1.64175554 0.441257497,3.01872734 C0.441257497,4.36717728 1.45571327,5.44616094 3.0249087,5.44616094 L3.05477858,5.44616094 C4.68455386,5.44616094 5.69956969,4.36717728 5.69956969,3.01872734 Z"></path>
                            <path d="M22.2482295,13.3544512 C22.2482295,9.0408468 19.9423682,7.03322509 16.8666107,7.03322509 C14.3849838,7.03322509 13.2739176,8.3963088 12.6535576,9.35253662 L12.6535576,7.36337023 L7.9789215,7.36337023 C8.04052813,8.68115451 7.9789215,21.4070285 7.9789215,21.4070285 L12.6535576,21.4070285 L12.6535576,13.5638911 C12.6535576,13.1441724 12.6838942,12.725479 12.8074808,12.4249743 C13.1452905,11.586469 13.9144399,10.7183234 15.2057521,10.7183234 C16.8977874,10.7183234 17.5741535,12.0060945 17.5741535,13.8932906 L17.5741535,21.4066557 L22.2480428,21.4066557 L22.2482295,13.3544512 Z"></path>
                        </g>
                    </g>
                </g>
            </g>
        </g>
    </g>
</svg>