<?xml version="1.0" encoding="UTF-8" standalone="no"?>
<svg width="88px" height="43px" viewBox="0 0 88 43" version="1.1" xmlns="http://www.w3.org/2000/svg" xmlns:xlink="http://www.w3.org/1999/xlink" xmlns:sketch="http://www.bohemiancoding.com/sketch/ns">
    <!-- Generator: Sketch 3.3.3 (12081) - http://www.bohemiancoding.com/sketch -->
    <title>logo-news</title>
    <desc>Created with Sketch.</desc>
    <defs></defs>
    <g id="news_page_index" stroke="none" stroke-width="1" fill="none" fill-rule="evenodd" sketch:type="MSPage">
        <g id="PTSNews-Index_4_36px_dot" sketch:type="MSArtboardGroup" transform="translate(-77.000000, -172.000000)">
            <g id="news_nwtwork_header" sketch:type="MSLayerGroup" transform="translate(50.000000, 165.000000)">
                <g id="logo-news" transform="translate(27.200000, 6.500000)" sketch:type="MSShapeGroup">
                    <path d="M1.8,35.08 L3.3,35.08 C4.1533376,35.08 4.713332,35.113333 4.98,35.18 C5.246668,35.246667 5.49166555,35.3666658 5.715,35.54 C5.93833445,35.7133342 6.1133327,35.9299987 6.24,36.19 C6.3666673,36.4500013 6.43,36.7433317 6.43,37.07 C6.43,37.3966683 6.36833395,37.6899987 6.245,37.95 C6.12166605,38.2100013 5.94500115,38.4249992 5.715,38.595 C5.48499885,38.7650009 5.203335,38.8849997 4.87,38.955 C4.536665,39.0250004 3.9466709,39.06 3.1,39.06 L2.66,39.06 L2.66,42.4 L1.8,42.4 L1.8,35.08 Z M2.66,38.23 L3.8,38.23 C4.4733367,38.2433334 4.93166545,38.1366678 5.175,37.91 C5.41833455,37.6833322 5.54,37.4000017 5.54,37.06 C5.54,36.2999962 4.9800056,35.92 3.86,35.92 L2.66,35.92 L2.66,38.23 Z M11.09,35.92 L9.49,35.92 L9.49,42.4 L8.62,42.4 L8.62,35.92 L7.01,35.92 L7.01,35.08 L11.09,35.08 L11.09,35.92 Z M14.8,36.69 C14.533332,36.3299982 14.3066676,36.088334 14.12,35.965 C13.9333324,35.8416661 13.7150012,35.78 13.465,35.78 C13.2149987,35.78 13.0050008,35.8599992 12.835,36.02 C12.6649991,36.1800008 12.58,36.3849988 12.58,36.635 C12.58,36.8850013 12.6599992,37.1033324 12.82,37.29 C12.9800008,37.4766676 13.3483304,37.7816646 13.925,38.205 C14.5016695,38.6283355 14.923332,39.0266648 15.19,39.4 C15.456668,39.7733352 15.59,40.1666646 15.59,40.58 C15.59,41.1200027 15.3816687,41.5883314 14.965,41.985 C14.5483312,42.3816687 14.0633361,42.58 13.51,42.58 C12.5366618,42.58 11.7733361,42.0366721 11.22,40.95 L11.95,40.53 C12.3833355,41.3366707 12.8699973,41.74 13.41,41.74 C13.7566684,41.74 14.0533321,41.6300011 14.3,41.41 C14.5466679,41.1899989 14.67,40.9333348 14.67,40.64 C14.67,40.3466652 14.5666677,40.0683347 14.36,39.805 C14.1533323,39.5416654 13.7966692,39.2183353 13.29,38.835 C12.7833308,38.4516648 12.4350009,38.160001 12.245,37.96 C12.054999,37.759999 11.9166671,37.5466678 11.83,37.32 C11.7433329,37.0933322 11.7,36.8666678 11.7,36.64 C11.7,36.1533309 11.8683316,35.7416684 12.205,35.405 C12.5416683,35.0683317 12.976664,34.9 13.51,34.9 C13.9233354,34.9 14.2833318,35.004999 14.59,35.215 C14.8966682,35.4250011 15.1966652,35.7366646 15.49,36.15 L14.8,36.69 Z M25.25,42.4 L24.99,42.4 L20.35,37.09 L20.35,42.4 L19.47,42.4 L19.47,35.08 L19.73,35.08 L24.4,40.46 L24.4,35.08 L25.25,35.08 L25.25,42.4 Z M32.12,39.82 L27.34,39.82 C27.3733335,40.420003 27.5749981,40.9016649 27.945,41.265 C28.3150018,41.6283352 28.7566641,41.81 29.27,41.81 C30.1433377,41.81 30.8099977,41.3800043 31.27,40.52 L31.97,40.88 C31.6566651,41.4600029 31.2866688,41.888332 30.86,42.165 C30.4333312,42.4416681 29.9233363,42.58 29.33,42.58 C28.5099959,42.58 27.833336,42.2983362 27.3,41.735 C26.766664,41.1716639 26.5,40.4933373 26.5,39.7 C26.5,38.9066627 26.7683306,38.2266695 27.305,37.66 C27.8416693,37.0933305 28.5066627,36.81 29.3,36.81 C30.0933373,36.81 30.756664,37.0783307 31.29,37.615 C31.823336,38.1516694 32.0999999,38.886662 32.12,39.82 L32.12,39.82 Z M31.2,39.09 C31.0999995,38.623331 30.8733351,38.2600013 30.52,38 C30.1666649,37.7399987 29.7600023,37.61 29.3,37.61 C28.366662,37.61 27.7466682,38.1033284 27.44,39.09 L31.2,39.09 Z M40.84,36.95 L38.51,42.58 L38.3,42.58 L36.7,38.7 L35.09,42.58 L34.88,42.58 L32.59,36.95 L33.44,36.95 L34.98,40.87 L36.6,36.95 L36.8,36.95 L38.41,40.88 L39.98,36.95 L40.84,36.95 Z M44.4,37.59 L43.87,38.14 C43.4766647,37.7733315 43.1166683,37.59 42.79,37.59 C42.5833323,37.59 42.4100007,37.6549994 42.27,37.785 C42.1299993,37.9150007 42.06,38.0749991 42.06,38.265 C42.06,38.455001 42.1383325,38.621666 42.295,38.765 C42.4516674,38.9083341 42.729998,39.084999 43.13,39.295 C43.530002,39.5050011 43.8383322,39.7366654 44.055,39.99 C44.2716677,40.2433346 44.38,40.5533315 44.38,40.92 C44.38,41.386669 44.2183349,41.7799984 43.895,42.1 C43.571665,42.4200016 43.1733357,42.58 42.7,42.58 C42.0399967,42.58 41.4900022,42.3000028 41.05,41.74 L41.57,41.16 C41.9300018,41.5800021 42.2966648,41.79 42.67,41.79 C42.9233346,41.79 43.1399991,41.7066675 43.32,41.54 C43.5000009,41.3733325 43.59,41.1783345 43.59,40.955 C43.59,40.7316656 43.5083341,40.5450008 43.345,40.395 C43.1816658,40.2449993 42.9016686,40.070001 42.505,39.87 C42.1083313,39.669999 41.8083343,39.4483346 41.605,39.205 C41.4016656,38.9616655 41.3,38.6416687 41.3,38.245 C41.3,37.8483314 41.4449985,37.5100014 41.735,37.23 C42.0250014,36.9499986 42.4083309,36.81 42.885,36.81 C43.361669,36.81 43.866664,37.0699974 44.4,37.59 L44.4,37.59 Z M53.84,42.4 L53.58,42.4 L48.94,37.09 L48.94,42.4 L48.06,42.4 L48.06,35.08 L48.32,35.08 L52.99,40.46 L52.99,35.08 L53.84,35.08 L53.84,42.4 Z M60.71,39.82 L55.93,39.82 C55.9633335,40.420003 56.1649981,40.9016649 56.535,41.265 C56.9050018,41.6283352 57.3466641,41.81 57.86,41.81 C58.7333377,41.81 59.3999977,41.3800043 59.86,40.52 L60.56,40.88 C60.2466651,41.4600029 59.8766688,41.888332 59.45,42.165 C59.0233312,42.4416681 58.5133363,42.58 57.92,42.58 C57.0999959,42.58 56.423336,42.2983362 55.89,41.735 C55.356664,41.1716639 55.09,40.4933373 55.09,39.7 C55.09,38.9066627 55.3583306,38.2266695 55.895,37.66 C56.4316693,37.0933305 57.0966627,36.81 57.89,36.81 C58.6833373,36.81 59.346664,37.0783307 59.88,37.615 C60.413336,38.1516694 60.6899999,38.886662 60.71,39.82 L60.71,39.82 Z M59.79,39.09 C59.6899995,38.623331 59.4633351,38.2600013 59.11,38 C58.7566649,37.7399987 58.3500023,37.61 57.89,37.61 C56.956662,37.61 56.3366682,38.1033284 56.03,39.09 L59.79,39.09 Z M64.35,37.67 L63.27,37.67 L63.27,41.49 C63.27,41.6300007 63.2899998,41.7149999 63.33,41.745 C63.3700002,41.7750002 63.4699992,41.79 63.63,41.79 L64.11,41.79 L64.11,42.5 C63.7899984,42.5533336 63.5466675,42.58 63.38,42.58 C63.0599984,42.58 62.8233341,42.5016675 62.67,42.345 C62.5166659,42.1883326 62.44,41.9400017 62.44,41.6 L62.44,37.67 L61.5,37.67 L61.5,36.95 L62.44,36.95 L62.44,34.9 L63.27,34.9 L63.27,36.95 L64.35,36.95 L64.35,37.67 Z M72.82,36.95 L70.49,42.58 L70.28,42.58 L68.68,38.7 L67.07,42.58 L66.86,42.58 L64.57,36.95 L65.42,36.95 L66.96,40.87 L68.58,36.95 L68.78,36.95 L70.39,40.88 L71.96,36.95 L72.82,36.95 Z M76.13,36.81 C76.9166706,36.81 77.5849972,37.0933305 78.135,37.66 C78.6850027,38.2266695 78.96,38.9066627 78.96,39.7 C78.96,40.4933373 78.688336,41.1716639 78.145,41.735 C77.6016639,42.2983362 76.930004,42.58 76.13,42.58 C75.329996,42.58 74.6566694,42.2983362 74.11,41.735 C73.5633306,41.1716639 73.29,40.4933373 73.29,39.7 C73.29,38.9066627 73.5649972,38.2266695 74.115,37.66 C74.6650027,37.0933305 75.3366627,36.81 76.13,36.81 L76.13,36.81 Z M76.13,41.79 C76.6833361,41.79 77.154998,41.5883354 77.545,41.185 C77.9350019,40.7816647 78.13,40.2950029 78.13,39.725 C78.13,39.1549972 77.9316686,38.6616688 77.535,38.245 C77.1383313,37.8283313 76.668336,37.62 76.125,37.62 C75.5816639,37.62 75.1133353,37.8283313 74.72,38.245 C74.3266647,38.6616688 74.13,39.1566638 74.13,39.73 C74.13,40.3033362 74.3199981,40.789998 74.7,41.19 C75.0800019,41.590002 75.5566638,41.79 76.13,41.79 L76.13,41.79 Z M82.39,37.03 L81.96,37.73 C81.8466661,37.6699997 81.7366672,37.64 81.63,37.64 C81.4233323,37.64 81.2366675,37.7416657 81.07,37.945 C80.9033325,38.1483344 80.7783337,38.4149984 80.695,38.745 C80.6116662,39.0750017 80.57,39.6699957 80.57,40.53 L80.57,42.4 L79.73,42.4 L79.73,36.95 L80.57,36.95 L80.57,37.54 C80.7366675,37.2933321 80.9049991,37.1100006 81.075,36.99 C81.2450008,36.8699994 81.4383322,36.81 81.655,36.81 C81.8716677,36.81 82.1166653,36.8833326 82.39,37.03 L82.39,37.03 Z M87.38,42.4 L86.19,42.4 L83.63,40.1 L83.63,42.4 L82.8,42.4 L82.8,34.9 L83.63,34.9 L83.63,39.01 L85.98,36.96 L87.21,36.95 L84.21,39.55 L87.38,42.4 Z" id="PTS-News-Network" fill="#FF3F30"></path>
                    <path d="M9.11,11.02 C9.3500012,10.5799978 9.569999,10.1700019 9.77,9.79 C9.970001,9.4099981 10.1549991,9.03500185 10.325,8.665 C10.4950008,8.29499815 10.6599992,7.910002 10.82,7.51 C10.9800008,7.109998 11.1499991,6.6600025 11.33,6.16 C10.5499961,6.1199998 9.6700049,6.09500005 8.69,6.085 C7.7099951,6.07499995 6.7900043,6.0899998 5.93,6.13 C6.2700017,7.1100049 6.59499845,7.9599964 6.905,8.68 C7.21500155,9.4000036 7.4899988,9.9899977 7.73,10.45 L6.2,11.02 L9.11,11.02 Z M11.66,6.16 C12.5000042,6.6600025 13.219997,6.9799993 13.82,7.12 C13.9800008,7.1600002 14.0699999,7.2299995 14.09,7.33 C14.1100001,7.4300005 14.0000012,7.5299995 13.76,7.63 C13.6799996,7.6700002 13.5850005,7.7399995 13.475,7.84 C13.3649994,7.9400005 13.2150009,8.11499875 13.025,8.365 C12.834999,8.61500125 12.5850015,8.9499979 12.275,9.37 C11.9649984,9.7900021 11.5700024,10.3299967 11.09,10.99 C11.3500013,10.99 11.6499983,10.9850001 11.99,10.975 C12.3300017,10.965 12.6799982,10.9450002 13.04,10.915 C13.4000018,10.8849999 13.7499983,10.8600001 14.09,10.84 C14.4300017,10.8199999 14.7399986,10.7900002 15.02,10.75 L15.02,13.15 C14.2999964,13.0499995 13.4950044,12.9750003 12.605,12.925 C11.7149955,12.8749998 10.6400063,12.85 9.38,12.85 L9.38,15.85 C10.2600044,15.85 11.094996,15.8300002 11.885,15.79 C12.6750039,15.7499998 13.5899948,15.6800005 14.63,15.58 L14.63,18.07 C14.2499981,18.0299998 13.8350022,17.9900002 13.385,17.95 C12.9349977,17.9099998 12.4800023,17.8750002 12.02,17.845 C11.5599977,17.8149999 11.1000023,17.7950001 10.64,17.785 C10.1799977,17.775 9.7600019,17.77 9.38,17.77 L9.38,23.23 C9.38,24.030004 9.40499975,24.7999963 9.455,25.54 C9.50500025,26.2800037 9.5799995,27.0299962 9.68,27.79 L6.8,27.79 C6.9000005,27.0099961 6.9699998,26.2550037 7.01,25.525 C7.0500002,24.7949964 7.07,24.030004 7.07,23.23 L7.07,19.12 C6.4499969,20.7600082 5.7600038,22.179994 5,23.38 C4.2399962,24.580006 3.3800048,25.6299955 2.42,26.53 C2.0599982,26.1099979 1.69500185,25.7600014 1.325,25.48 C0.95499815,25.1999986 0.5900018,25.0100005 0.23,24.91 C1.5500066,23.9499952 2.66499545,22.8800059 3.575,21.7 C4.48500455,20.5199941 5.2299971,19.2200071 5.81,17.8 C4.9099955,17.8 4.13500325,17.8249998 3.485,17.875 C2.83499675,17.9250003 2.210003,17.9899996 1.61,18.07 L1.61,15.58 C2.3500037,15.6800005 3.1799954,15.7499998 4.1,15.79 C5.0200046,15.8300002 6.0099947,15.85 7.07,15.85 L7.07,12.85 C6.6099977,12.85 6.10500275,12.855 5.555,12.865 C5.00499725,12.8750001 4.4600027,12.8949999 3.92,12.925 C3.3799973,12.9550002 2.8600025,12.9899998 2.36,13.03 C1.8599975,13.0700002 1.4300018,13.1099998 1.07,13.15 L1.07,10.75 C1.670003,10.8300004 2.37499595,10.8899998 3.185,10.93 C3.99500405,10.9700002 4.7199968,10.99 5.36,10.99 C5.2599995,10.6699984 5.1400007,10.3000021 5,9.88 C4.8599993,9.4599979 4.7100008,9.050002 4.55,8.65 C4.3899992,8.249998 4.23500075,7.8800017 4.085,7.54 C3.93499925,7.1999983 3.8100005,6.930001 3.71,6.73 L5.27,6.16 C5.1499994,6.16 4.95500135,6.1699999 4.685,6.19 C4.41499865,6.2100001 4.12500155,6.2299999 3.815,6.25 C3.50499845,6.2700001 3.1900016,6.2999998 2.87,6.34 C2.5499984,6.3800002 2.290001,6.4099999 2.09,6.43 L2.09,3.88 C2.7900035,3.9800005 3.6099953,4.05499975 4.55,4.105 C5.4900047,4.15500025 6.5799938,4.18 7.82,4.18 C7.6799993,3.7199977 7.53500075,3.2700022 7.385,2.83 C7.23499925,2.3899978 7.0800008,1.970002 6.92,1.57 L9.62,1.03 C9.7400006,1.5500026 9.85499945,2.04499765 9.965,2.515 C10.0750005,2.98500235 10.2099992,3.5399968 10.37,4.18 C10.7100017,4.18 11.074998,4.1700001 11.465,4.15 C11.8550019,4.1299999 12.244998,4.10500015 12.635,4.075 C13.0250019,4.04499985 13.4049981,4.01500015 13.775,3.985 C14.1450018,3.95499985 14.4799985,3.9200002 14.78,3.88 L14.78,6.43 C14.3399978,6.3699997 13.8100031,6.3100003 13.19,6.25 C12.5699969,6.1899997 12.060002,6.16 11.66,6.16 L11.66,6.16 Z M22.88,11.35 C23.4200027,11.35 23.8949979,11.3450001 24.305,11.335 C24.715002,11.325 25.0899983,11.3050002 25.43,11.275 C25.7700017,11.2449999 26.0899985,11.2100002 26.39,11.17 C26.6900015,11.1299998 26.9999984,11.0700004 27.32,10.99 L27.32,13.81 C26.8199975,13.6899994 26.270003,13.5950004 25.67,13.525 C25.069997,13.4549997 24.5600021,13.42 24.14,13.42 L24.14,23.56 C24.14,24.4600045 24.1549998,25.2799963 24.185,26.02 C24.2150001,26.7600037 24.2799995,27.529996 24.38,28.33 L21.47,28.33 C21.5500004,27.4899958 21.6099998,26.7100036 21.65,25.99 C21.6900002,25.2699964 21.71,24.4600045 21.71,23.56 L21.71,13.42 L18.98,13.42 C18.9399998,15.3200095 18.8500007,16.969993 18.71,18.37 C18.5699993,19.770007 18.3550014,21.0299944 18.065,22.15 C17.7749985,23.2700056 17.4100022,24.2949954 16.97,25.225 C16.5299978,26.1550047 16.0000031,27.0899953 15.38,28.03 C15.1999991,27.8899993 15.0250008,27.7650006 14.855,27.655 C14.6849991,27.5449995 14.500001,27.4450005 14.3,27.355 C14.099999,27.2649996 13.8700013,27.1750005 13.61,27.085 C13.3499987,26.9949996 13.0300019,26.9000005 12.65,26.8 C13.3700036,26.0399962 13.9649976,25.2500041 14.435,24.43 C14.9050023,23.6099959 15.2899985,22.6450056 15.59,21.535 C15.8900015,20.4249945 16.1149992,19.1100076 16.265,17.59 C16.4150007,16.0699924 16.5199997,14.2300108 16.58,12.07 C16.6200002,10.2899911 16.6300001,8.6600074 16.61,7.18 C16.5899999,5.6999926 16.5400004,4.5800038 16.46,3.82 C17.1800036,3.82 17.934996,3.7800004 18.725,3.7 C19.5150039,3.6199996 20.304996,3.50500075 21.095,3.355 C21.8850039,3.20499925 22.6499963,3.0200011 23.39,2.8 C24.1300037,2.5799989 24.799997,2.3500012 25.4,2.11 C25.4800004,2.2900009 25.5849993,2.4999988 25.715,2.74 C25.8450006,2.9800012 25.9849992,3.2099989 26.135,3.43 C26.2850007,3.6500011 26.4299993,3.85499905 26.57,4.045 C26.7100007,4.23500095 26.8299995,4.3799995 26.93,4.48 C27.4900028,5.0200027 27.3800039,5.2100008 26.6,5.05 C26.3599988,5.0099998 25.8750036,5.01499975 25.145,5.065 C24.4149963,5.11500025 23.6300042,5.1999994 22.79,5.32 C22.1499968,5.4200005 21.5150031,5.49499975 20.885,5.545 C20.2549968,5.59500025 19.6200032,5.6399998 18.98,5.68 L18.98,11.35 L22.88,11.35 Z M12.62,24.07 C12.2399981,23.2099957 11.8600019,22.4900029 11.48,21.91 C11.0999981,21.3299971 10.6500026,20.7600028 10.13,20.2 L11.9,19 C12.4400027,19.6400032 12.909998,20.2249974 13.31,20.755 C13.710002,21.2850027 14.1699974,21.8899966 14.69,22.57 L12.62,24.07 Z M53.39,7.9 L47.48,7.9 L47.48,9.7 L53.39,9.7 L53.39,7.9 Z M55.76,2.65 C55.7399999,3.050002 55.725,3.46499785 55.715,3.895 C55.7049999,4.32500215 55.7,4.7899975 55.7,5.29 L55.7,25.42 C55.7,25.820002 55.6600004,26.1549987 55.58,26.425 C55.4999996,26.6950014 55.3300013,26.934999 55.07,27.145 C54.8099987,27.3550011 54.4300025,27.5449992 53.93,27.715 C53.4299975,27.8850009 52.7500043,28.069999 51.89,28.27 C51.8299997,27.7099972 51.7150008,27.2400019 51.545,26.86 C51.3749991,26.4799981 51.090002,26.0800021 50.69,25.66 C51.290003,25.7200003 51.7699982,25.75 52.13,25.75 C52.4900018,25.75 52.7599991,25.7250003 52.94,25.675 C53.1200009,25.6249998 53.2399997,25.5450006 53.3,25.435 C53.3600003,25.3249995 53.39,25.1900008 53.39,25.03 L53.39,11.41 L47.93,11.41 C47.0099954,11.41 46.1200043,11.4399997 45.26,11.5 C45.3000002,11.1599983 45.3299999,10.7500024 45.35,10.27 C45.3700001,9.7899976 45.38,9.2900026 45.38,8.77 L45.38,5.29 C45.38,4.7699974 45.3700001,4.2900022 45.35,3.85 C45.3299999,3.4099978 45.3000002,3.0100018 45.26,2.65 C45.7000022,2.6900002 46.1399978,2.71499995 46.58,2.725 C47.0200022,2.73500005 47.4599978,2.74 47.9,2.74 L53.03,2.74 C53.4700022,2.74 53.9249976,2.73500005 54.395,2.725 C54.8650023,2.71499995 55.3199978,2.6900002 55.76,2.65 L55.76,2.65 Z M40.55,7.81 L34.76,7.81 L34.76,9.58 L40.55,9.58 L40.55,7.81 Z M42.86,11.38 C41.9799956,11.3199997 41.0900045,11.29 40.19,11.29 L34.76,11.29 L34.76,22.54 L34.76,24.04 C34.76,24.5000023 34.7649999,24.9499978 34.775,25.39 C34.785,25.8300022 34.7999999,26.2749978 34.82,26.725 C34.8400001,27.1750023 34.8599999,27.6599974 34.88,28.18 L32.21,28.18 C32.2500002,27.6599974 32.2849998,27.1750023 32.315,26.725 C32.3450001,26.2749978 32.3699999,25.8300022 32.39,25.39 C32.4100001,24.9499978 32.4249999,24.5000023 32.435,24.04 C32.445,23.5799977 32.45,23.0800027 32.45,22.54 L32.45,5.14 C32.45,4.6399975 32.445,4.16500225 32.435,3.715 C32.4249999,3.26499775 32.4100001,2.8600018 32.39,2.5 C32.8300022,2.5400002 33.2899976,2.56499995 33.77,2.575 C34.2500024,2.58500005 34.7099978,2.59 35.15,2.59 L40.19,2.59 C41.0900045,2.59 41.9799956,2.5600003 42.86,2.5 C42.8199998,2.8600018 42.7900001,3.2599978 42.77,3.7 C42.7499999,4.1400022 42.74,4.6199974 42.74,5.14 L42.74,8.65 C42.74,9.1700026 42.7499999,9.6699976 42.77,10.15 C42.7900001,10.6300024 42.8199998,11.0399983 42.86,11.38 L42.86,11.38 Z M53.39,4.6 L47.48,4.6 L47.48,6.28 L53.39,6.28 L53.39,4.6 Z M40.55,4.42 L34.76,4.42 L34.76,6.28 L40.55,6.28 L40.55,4.42 Z M38.54,14.77 C38.1199979,14.7900001 37.7550015,14.8099999 37.445,14.83 C37.1349984,14.8500001 36.8300015,14.8799998 36.53,14.92 L36.53,12.85 C36.730001,12.8900002 36.9699986,12.915 37.25,12.925 C37.5300014,12.9350001 37.9399973,12.9499999 38.48,12.97 C39.0200027,12.9900001 39.7399955,13 40.64,13 L44.18,13 L47.72,13 C48.6200045,13 49.3399973,12.9900001 49.88,12.97 C50.4200027,12.9499999 50.8299986,12.9350001 51.11,12.925 C51.3900014,12.915 51.629999,12.8900002 51.83,12.85 L51.83,14.92 C51.4499981,14.8799998 51.0650019,14.8450002 50.675,14.815 C50.284998,14.7849999 49.8000029,14.7600001 49.22,14.74 L49.22,22.36 C49.7800028,22.3199998 50.2849977,22.2850002 50.735,22.255 C51.1850022,22.2249999 51.6299978,22.1900002 52.07,22.15 L52.1,24.31 C51.6399977,24.2699998 51.1850022,24.2400001 50.735,24.22 C50.2849977,24.1999999 49.7800028,24.1999999 49.22,24.22 L49.22,25.075 C49.22,25.3250013 49.2249999,25.5749988 49.235,25.825 C49.245,26.0750013 49.2549999,26.3349987 49.265,26.605 C49.275,26.8750014 49.28,27.1899982 49.28,27.55 L47.03,27.55 C47.0500001,27.1899982 47.0649999,26.8750014 47.075,26.605 C47.085,26.3349987 47.09,26.0800012 47.09,25.84 L47.09,25.105 L47.09,24.28 L40.07,24.52 C39.2299958,24.5600002 38.505003,24.5999998 37.895,24.64 C37.2849969,24.6800002 36.6700031,24.7399996 36.05,24.82 L35.96,22.63 C36.360002,22.6700002 36.7749978,22.695 37.205,22.705 C37.6350021,22.7150001 38.0799977,22.7100001 38.54,22.69 L38.54,14.77 Z M40.61,22.63 L47.09,22.42 L47.09,20.83 L40.61,20.83 L40.61,22.63 Z M40.61,19.36 L47.09,19.36 L47.09,17.8 L40.61,17.8 L40.61,19.36 Z M40.61,16.33 L47.09,16.33 L47.09,14.74 L40.61,14.74 L40.61,16.33 Z M84.86,4.6 L74.45,4.6 L74.45,10.96 L79.85,10.96 C80.1700016,9.9399949 80.4449988,8.93500495 80.675,7.945 C80.9050011,6.95499505 81.0699995,6.160003 81.17,5.56 C81.6500024,5.760001 82.0999979,5.93499925 82.52,6.085 C82.9400021,6.23500075 83.2899986,6.3499996 83.57,6.43 C84.1100027,6.5500006 84.1400024,6.7699984 83.66,7.09 C83.5599995,7.1700004 83.4550005,7.26499945 83.345,7.375 C83.2349994,7.48500055 83.1100007,7.67499865 82.97,7.945 C82.8299993,8.21500135 82.655001,8.58499765 82.445,9.055 C82.2349989,9.52500235 81.9700016,10.159996 81.65,10.96 L84.86,10.96 L84.86,4.6 Z M76.94,10.39 C76.7199989,9.6899965 76.4950011,9.0700027 76.265,8.53 C76.0349988,7.9899973 75.7800014,7.4600026 75.5,6.94 L77.6,6.16 C77.9400017,6.6800026 78.2499986,7.21499725 78.53,7.765 C78.8100014,8.31500275 79.0599989,8.9399965 79.28,9.64 L76.94,10.39 Z M64.34,11.17 C63.8599976,11.2500004 63.4700015,11.3149998 63.17,11.365 C62.8699985,11.4150003 62.620001,11.4649998 62.42,11.515 C62.219999,11.5650003 62.0500007,11.6049999 61.91,11.635 C61.7699993,11.6650002 61.6100009,11.7099997 61.43,11.77 C61.3899998,11.3899981 61.3200005,11.000002 61.22,10.6 C61.1199995,10.199998 60.9600011,9.7700023 60.74,9.31 C60.940001,9.3300001 61.134999,9.34 61.325,9.34 L61.94,9.34 C62.2600016,8.8599976 62.6399978,8.2400038 63.08,7.48 C63.5200022,6.7199962 63.9499979,5.9200042 64.37,5.08 C64.7900021,4.2399958 65.1799982,3.4100041 65.54,2.59 C65.9000018,1.7699959 66.1699991,1.0700029 66.35,0.49 C66.750002,0.8300017 67.1599979,1.099999 67.58,1.3 C68.0000021,1.500001 68.4399977,1.6699993 68.9,1.81 C69.2600018,1.9100005 69.44,2.0199994 69.44,2.14 C69.44,2.2600006 69.3100013,2.3499997 69.05,2.41 C68.8899992,2.4500002 68.710001,2.55499915 68.51,2.725 C68.309999,2.89500085 68.0300018,3.2199976 67.67,3.7 C67.3099982,4.1800024 66.8350029,4.86499555 66.245,5.755 C65.654997,6.64500445 64.9000046,7.8299926 63.98,9.31 C64.5600029,9.2699998 65.1399971,9.2400001 65.72,9.22 C66.3000029,9.1999999 66.8799971,9.1700002 67.46,9.13 C67.9200023,8.3899963 68.2949985,7.7600026 68.585,7.24 C68.8750014,6.7199974 69.1299989,6.2100025 69.35,5.71 C69.6900017,6.0500017 70.054998,6.3299989 70.445,6.55 C70.8350019,6.7700011 71.2099982,6.9599992 71.57,7.12 C71.8100012,7.2200005 71.9200001,7.33499935 71.9,7.465 C71.8799999,7.59500065 71.7400013,7.6799998 71.48,7.72 C71.279999,7.7600002 71.0350014,7.94499835 70.745,8.275 C70.4549985,8.60500165 70.1200019,9.0399973 69.74,9.58 C69.0999968,10.5200047 68.3300045,11.5999939 67.43,12.82 C66.5299955,14.0400061 65.5100057,15.3199933 64.37,16.66 C65.0100032,16.6199998 65.6699966,16.5700003 66.35,16.51 C67.0300034,16.4499997 67.6899968,16.3800004 68.33,16.3 C68.129999,15.8199976 67.925001,15.385002 67.715,14.995 C67.5049989,14.6049981 67.3200008,14.310001 67.16,14.11 L69.02,13.39 C69.220001,13.7500018 69.4349988,14.1599977 69.665,14.62 C69.8950011,15.0800023 70.1149989,15.5499976 70.325,16.03 C70.535001,16.5100024 70.7249991,16.9799977 70.895,17.44 C71.0650008,17.9000023 71.1899996,18.3099982 71.27,18.67 L69.11,19.27 C69.11,19.069999 69.0950001,18.875001 69.065,18.685 C69.0349998,18.4949991 68.9800004,18.2600014 68.9,17.98 L65.15,18.58 C64.5699971,18.6800005 63.9850029,18.7899994 63.395,18.91 C62.804997,19.0300006 62.3200019,19.1699992 61.94,19.33 C61.8999998,18.9899983 61.8200006,18.5850024 61.7,18.115 C61.5799994,17.6449977 61.4100011,17.2000021 61.19,16.78 L62.33,16.78 C62.8700027,16.0799965 63.4949964,15.2050053 64.205,14.155 C64.9150035,13.1049948 65.6399963,11.9900059 66.38,10.81 L64.34,11.17 Z M80.69,16.09 C81.3300032,16.09 81.9899966,16.0700002 82.67,16.03 C83.3500034,15.9899998 83.8799981,15.9500002 84.26,15.91 L84.26,18.16 C83.9399984,18.0999997 83.5400024,18.0550002 83.06,18.025 C82.5799976,17.9949999 82.1200022,17.98 81.68,17.98 L78.71,17.98 L78.71,20.14 C78.71,20.6800027 78.7799993,21.0149994 78.92,21.145 C79.0600007,21.2750007 79.4199971,21.34 80,21.34 L81.89,21.34 C82.3700024,21.34 82.7399987,21.3300001 83,21.31 C83.2600013,21.2899999 83.6099978,21.2500003 84.05,21.19 L84.05,23.44 C83.8299989,23.4199999 83.6450007,23.4000001 83.495,23.38 C83.3449992,23.3599999 83.1950007,23.3400001 83.045,23.32 C82.8949992,23.2999999 82.7300009,23.29 82.55,23.29 L81.92,23.29 L79.52,23.29 C78.8599967,23.29 78.3450018,23.2700002 77.975,23.23 C77.6049981,23.1899998 77.3250009,23.0950008 77.135,22.945 C76.944999,22.7949993 76.8300002,22.5650016 76.79,22.255 C76.7499998,21.9449985 76.73,21.5100028 76.73,20.95 L76.73,17.98 C75.9899963,18.0200002 75.3800024,18.0799996 74.9,18.16 L74.9,15.91 C75.3600023,15.9700003 75.9249966,16.0199998 76.595,16.06 C77.2650033,16.1000002 77.8899971,16.12 78.47,16.12 L78.47,12.94 L74.45,12.94 L74.45,27.97 L71.99,27.97 C72.0500003,27.6099982 72.0949998,27.2450019 72.125,26.875 C72.1550001,26.5049982 72.1849998,26.1050022 72.215,25.675 C72.2450001,25.2449979 72.2649999,24.7650027 72.275,24.235 C72.285,23.7049974 72.29,23.0900035 72.29,22.39 L72.29,6.64 L72.29,5.02 L72.29,3.94 C72.29,3.6399985 72.285,3.37500115 72.275,3.145 C72.2649999,2.91499885 72.2500001,2.6600014 72.23,2.38 C72.4700012,2.4200002 72.7599983,2.4599998 73.1,2.5 C73.4400017,2.5400002 73.8849972,2.5699999 74.435,2.59 C74.9850027,2.6100001 75.6849957,2.62499995 76.535,2.635 C77.3850042,2.64500005 78.4399937,2.65 79.7,2.65 C81.100007,2.65 82.2349956,2.64500005 83.105,2.635 C83.9750043,2.62499995 84.6799973,2.6100001 85.22,2.59 C85.7600027,2.5699999 86.1699986,2.54500015 86.45,2.515 C86.7300014,2.48499985 86.9899988,2.4400003 87.23,2.38 C87.2099999,2.6200012 87.1900001,2.85499885 87.17,3.085 C87.1499999,3.31500115 87.135,3.5899984 87.125,3.91 C87.1149999,4.2300016 87.11,4.6099978 87.11,5.05 L87.11,6.73 L87.11,23.98 C87.11,24.7000036 87.0750003,25.2849978 87.005,25.735 C86.9349996,26.1850023 86.7650013,26.5449987 86.495,26.815 C86.2249986,27.0850014 85.8200027,27.3099991 85.28,27.49 C84.7399973,27.6700009 84.0100046,27.8499991 83.09,28.03 C83.0499998,27.4899973 82.9550007,27.0050022 82.805,26.575 C82.6549992,26.1449979 82.4100017,25.730002 82.07,25.33 C82.6900031,25.3500001 83.1849981,25.3400002 83.555,25.3 C83.9250018,25.2599998 84.204999,25.1950005 84.395,25.105 C84.5850009,25.0149996 84.7099997,24.8950008 84.77,24.745 C84.8300003,24.5949993 84.86,24.4100011 84.86,24.19 L84.86,12.94 L80.69,12.94 L80.69,16.09 Z M69.59,25.72 C69.5099996,24.8399956 69.3750009,23.9500045 69.185,23.05 C68.994999,22.1499955 68.7600014,21.300004 68.48,20.5 L70.34,20.05 C70.4600006,20.4100018 70.5899993,20.8049979 70.73,21.235 C70.8700007,21.6650022 71.0099993,22.1049978 71.15,22.555 C71.2900007,23.0050023 71.4149994,23.4549978 71.525,23.905 C71.6350005,24.3550023 71.7399995,24.7699981 71.84,25.15 L69.59,25.72 Z M65.69,26.44 C65.69,25.4799952 65.6350005,24.4900051 65.525,23.47 C65.4149994,22.4499949 65.2500011,21.5500039 65.03,20.77 L66.98,20.5 C67.2000011,21.2600038 67.3949991,22.139995 67.565,23.14 C67.7350008,24.140005 67.8499997,25.1299951 67.91,26.11 L65.69,26.44 Z M64.25,20.83 C64.1899997,21.7700047 64.060001,22.7749947 63.86,23.845 C63.659999,24.9150054 63.4300013,25.8999955 63.17,26.8 L60.95,26.35 C61.2900017,25.4499955 61.5699989,24.4600054 61.79,23.38 C62.0100011,22.2999946 62.1599996,21.3400042 62.24,20.5 L64.25,20.83 Z" id="新聞網" fill="#004098"></path>
                </g>
            </g>
        </g>
    </g>
</svg>