<?xml version="1.0" encoding="UTF-8" standalone="no"?>
<svg width="185px" height="31px" viewBox="0 0 185 31" version="1.1" xmlns="http://www.w3.org/2000/svg" xmlns:xlink="http://www.w3.org/1999/xlink" xmlns:sketch="http://www.bohemiancoding.com/sketch/ns">
    <!-- Generator: Sketch 3.3.3 (12081) - http://www.bohemiancoding.com/sketch -->
    <title>program-title</title>
    <desc>Created with Sketch.</desc>
    <defs></defs>
    <g id="news_page_index" stroke="none" stroke-width="1" fill="none" fill-rule="evenodd" sketch:type="MSPage">
        <g id="PTSnews-Index_pad-ver2_menu" sketch:type="MSArtboardGroup" transform="translate(-21.000000, -1808.000000)" fill="#000000">
            <g id="Group_news_program_copy" sketch:type="MSLayerGroup" transform="translate(20.000000, 1808.000000)">
                <g id="program-title" transform="translate(1.000000, 0.000000)" sketch:type="MSShapeGroup">
                    <path d="M29.336,16.696 C25.72,13.688 22.456,9.272 19.544,2.2 L13.432,2.2 L13.432,3.448 L18.84,3.448 C21.848,10.392 24.632,14.264 28.504,17.944 L29.336,16.696 Z M28.12,29.144 C25.592,25.656 22.904,22.008 20.312,18.68 L19.352,19.448 C20.888,21.4 22.2,23.032 23.576,25.048 C17.432,25.72 12.472,25.944 7.64,26.296 C10.712,21.272 13.208,16.344 15.608,10.808 L14.424,10.168 C11.96,15.928 9.368,21.112 6.2,26.36 C4.952,26.456 3.576,26.456 2.52,26.456 L2.872,27.832 C11.16,27.32 17.72,27.096 24.536,26.232 L27.096,30.072 L28.12,29.144 Z M1.624,17.976 C5.912,12.568 7.992,9.272 10.712,3.736 L9.592,3.224 C6.936,8.632 4.824,12.12 0.664,17.144 L1.624,17.976 Z M61.4,27.032 C61.528,25.912 61.528,25.048 61.56,23.928 L60.344,23.416 C60.312,24.792 60.28,25.752 60.184,26.68 C60.088,27.736 59.704,27.992 58.712,28.024 L55.64,28.024 C54.488,27.992 54.392,27.672 54.392,26.488 L54.392,19.896 L58.776,19.896 L58.776,2.328 L45.464,2.328 L45.464,19.896 L49.336,19.896 C48.824,24.408 46.616,26.712 41.752,29.016 L42.36,30.072 C46.68,28.12 49.88,25.208 50.392,19.896 L53.24,19.896 L53.24,26.488 C53.24,28.408 53.432,29.08 55.64,29.176 L58.712,29.176 C60.568,29.08 61.24,28.824 61.4,27.032 L61.4,27.032 Z M39.32,5.72 C38.136,3.672 37.368,2.488 36.152,0.856 L35.224,1.496 C36.344,3.128 37.016,4.376 38.232,6.456 L39.32,5.72 Z M44.024,19.48 C42.584,17.688 41.656,16.696 40.312,15.352 L39.512,16.152 C40.856,17.592 41.624,18.552 43.096,20.376 L44.024,19.48 Z M38.968,14.424 C40.76,12.152 42.2,9.816 43.352,7 L32.728,7 L32.728,8.12 L41.528,8.12 C39.64,12.408 35.576,17.24 32.248,19.704 L33.08,20.696 C34.712,19.384 36.184,17.688 37.752,15.896 L37.752,30.2 L38.968,30.2 L38.968,14.424 Z M57.624,7.736 L46.584,7.736 L46.584,3.416 L57.624,3.416 L57.624,7.736 Z M57.624,12.952 L46.584,12.952 L46.584,8.824 L57.624,8.824 L57.624,12.952 Z M57.624,18.808 L46.584,18.808 L46.584,14.04 L57.624,14.04 L57.624,18.808 Z M93.464,12.728 L93.464,11.608 L82.68,11.608 L82.68,4.12 C86.84,3.608 89.08,3.384 92.44,2.712 L91.704,1.592 C88.248,2.264 86.104,2.584 81.56,3.096 L81.56,16.216 C81.56,20.984 80.792,25.336 78.392,29.08 L79.48,29.752 C81.784,26.072 82.68,21.432 82.68,16.216 L82.68,12.728 L88.344,12.728 L88.344,30.136 L89.56,30.136 L89.56,12.728 L93.464,12.728 Z M73.56,3.864 C72.792,2.744 72.056,1.72 71.256,0.6 L70.392,1.176 C71.256,2.424 71.864,3.416 72.6,4.568 L73.56,3.864 Z M79.032,5.976 L79.032,4.856 L65.624,4.856 L65.624,5.976 L79.032,5.976 Z M80.056,13.336 L80.056,12.152 L75.224,12.152 C75.896,10.52 76.504,8.856 77.144,6.968 L75.992,6.552 C75.352,8.568 74.808,10.136 74.04,12.152 L71,12.152 C70.232,10.072 69.752,8.792 68.984,6.872 L67.896,7.352 C68.632,8.984 69.08,10.264 69.752,12.152 L64.824,12.152 L64.824,13.336 L80.056,13.336 Z M78.712,24.856 C77.432,23.032 76.408,21.592 75.16,20.024 L74.296,20.664 C75.672,22.488 76.568,23.864 77.688,25.56 L78.712,24.856 Z M79.512,17.24 L73.208,17.24 L73.144,14.04 L71.896,14.04 L71.96,17.24 L65.176,17.24 L65.144,18.392 L71.064,18.392 C69.304,21.24 67.32,23.672 64.344,26.392 L65.272,27.224 C68.184,24.408 69.944,22.136 71.896,18.968 L71.896,30.2 L73.144,30.2 L73.144,18.392 L79.48,18.392 L79.512,17.24 Z M120.952,29.848 C123.032,29.848 123.576,29.56 123.576,27.544 L123.576,2.104 L112.504,2.104 L112.504,10.744 L122.392,10.744 L122.392,27.544 C122.392,28.472 122.008,28.664 121.08,28.664 C120.28,28.664 119.192,28.536 118.328,28.376 L118.52,29.688 C119.256,29.784 120.184,29.848 120.952,29.848 L120.952,29.848 Z M115.736,25.496 C117.24,25.368 118.584,25.272 120.088,25.048 L119.992,23.992 C118.744,24.184 117.304,24.344 115.736,24.472 L115.736,14.456 L119.192,14.456 L119.192,13.368 L102.104,13.368 L102.104,14.456 L105.752,14.456 L105.752,25.304 C104.44,25.432 103.096,25.496 101.656,25.592 L101.848,26.776 C106.36,26.392 110.456,26.008 114.584,25.624 L114.584,28.696 L115.736,28.696 L115.736,25.496 Z M109.464,10.744 L109.464,2.104 L98.296,2.104 L98.296,30.2 L99.48,30.2 L99.48,10.744 L109.464,10.744 Z M122.392,5.848 L113.56,5.848 L113.56,3.192 L122.392,3.192 L122.392,5.848 Z M122.392,9.624 L113.56,9.624 L113.56,6.904 L122.392,6.904 L122.392,9.624 Z M108.312,5.848 L99.48,5.848 L99.48,3.192 L108.312,3.192 L108.312,5.848 Z M108.312,9.624 L99.48,9.624 L99.48,6.904 L108.312,6.904 L108.312,9.624 Z M114.584,17.048 L106.904,17.048 L106.904,14.456 L114.584,14.456 L114.584,17.048 Z M114.584,20.92 L106.904,20.92 L106.904,18.136 L114.584,18.136 L114.584,20.92 Z M114.584,24.568 C112.152,24.792 109.72,24.984 106.904,25.208 L106.904,22.04 L114.584,22.04 L114.584,24.568 Z M157.112,5.592 L157.112,4.44 L147.256,4.44 C147.736,3.32 148.088,2.264 148.44,1.144 L147.32,0.792 C146.296,4.088 145.176,6.488 143.416,9.144 L144.408,9.784 C145.432,8.248 145.752,7.448 146.68,5.592 L148.728,5.592 C150.232,7.224 151.192,8.312 152.44,9.848 L153.4,9.048 C152.408,7.864 151.544,6.904 150.296,5.592 L157.112,5.592 Z M153.848,23.96 C153.848,24.76 153.496,24.92 152.632,24.92 C151.64,24.92 150.2,24.76 148.408,24.504 L148.568,25.912 C150.072,26.136 151.48,26.232 152.6,26.232 C154.68,26.232 155.032,25.816 155.032,23.672 L155.032,10.616 L145.56,10.616 L145.56,30.296 L146.712,30.296 L146.712,11.8 L153.848,11.8 L153.848,23.96 Z M143.832,5.592 L143.832,4.44 L134.168,4.44 C134.776,3.32 135.288,2.328 135.768,1.208 L134.648,0.76 C133.016,4.536 131.16,7.448 128.344,10.744 L129.272,11.544 C131.064,9.496 132.184,7.832 133.56,5.592 L136.088,5.592 C137.368,7.224 138.136,8.248 139.16,9.688 L140.248,8.92 C139.352,7.736 138.712,6.872 137.592,5.592 L143.832,5.592 Z M143.704,27.704 C142.008,25.432 140.568,23.672 138.776,21.624 L137.88,22.328 C138.52,23.096 139.032,23.8 139.768,24.664 C137.56,25.56 135.416,26.392 132.984,27.192 L132.984,20.344 L142.232,20.344 L142.232,10.52 L131.8,10.52 L131.8,27.608 L129.656,28.28 L130.2,29.496 C133.976,28.12 136.984,27 140.472,25.56 C141.272,26.616 141.944,27.48 142.68,28.6 L143.704,27.704 Z M141.08,14.648 L132.984,14.648 L132.984,11.608 L141.08,11.608 L141.08,14.648 Z M141.08,19.256 L132.984,19.256 L132.984,15.768 L141.08,15.768 L141.08,19.256 Z M184.44,30.168 L184.44,2.968 L165.336,2.968 L165.336,30.168 L166.584,30.168 L166.584,28.248 L183.192,28.248 L183.192,30.168 L184.44,30.168 Z M183.192,10.424 L166.584,10.424 L166.584,4.184 L183.192,4.184 L183.192,10.424 Z M183.192,18.296 L166.584,18.296 L166.584,11.672 L183.192,11.672 L183.192,18.296 Z M183.192,27 L166.584,27 L166.584,19.512 L183.192,19.512 L183.192,27 Z" id="公視新聞節目"></path>
                </g>
            </g>
        </g>
    </g>
</svg>